<defs>
<font horiz-adv-x="877" ><font-face
    font-family="komikatitle-wide"
    units-per-em="1000"
    panose-1="2 0 5 6 0 0 0 2 0 4"
    ascent="1127"
    descent="-269"
    alphabetic="0" />
<missing-glyph horiz-adv-x="500" />
<glyph unicode=" " glyph-name="space" horiz-adv-x="530" />
<glyph unicode="!" glyph-name="exclam" horiz-adv-x="587" d="M451 761Q416 775 371 786T288 804Q247 812 228 807T198 778Q176 728 150 662T99 527T53 390T18 270Q10 244 19 230T62 205Q93 194 126 187T198 175Q231 170 246 174T268 199Q288 254 314 316T369
442T430 571T493 697Q504 718 495 732T451 761ZM-62 64Q-64 40 -52 21T-19 -10T33 -29T97 -36Q130 -36 156 -29T201 -10T232 13T249 35Q255 47 254 63T241 94T205 123T141 144Q96 153 60 149T-3 133T-44 103T-62 64Z" />
<glyph unicode="&quot;" glyph-name="quotedbl" horiz-adv-x="823" d="M299 602Q314 617 332 638T365 684Q378 701 389 720T407 756T418 788T418 811Q415 826 387 842Q366 854 342 863T288 881Q256 891 236 889T209 866Q198 838 181 802T145 729T108 658T77 601Q60
569 121 565Q146 563 173 564T220 568Q268 572 299 602ZM618 572Q636 585 658 605T701 648T741 694T770 738Q781 765 781 771Q781 782 757 803Q739 814 717 825T667 846Q605 871 583 836Q566 810 541 776T490 707T437 639T392 586Q365 554 431 547Q456 545 481
544T532 544Q583 546 618 572Z" />
<glyph unicode="#" glyph-name="numbersign" horiz-adv-x="1052" d="M922 461Q955 463 962 469T950 492Q938 504 927 513T899 528T861 537T805 541Q817 558 823 573T838 602Q858 638 835 664T761 712Q706 736 686 702Q666 667 645 624T603 535Q563 533 521 531T433
526Q441 540 448 554T460 581Q478 618 453 643T376 690Q323 713 304 679Q284 643 264 600T224 509Q166 502 116 498T26 487Q-9 482 -13 475T2 451Q18 436 33 425T68 408T113 400T174 402H180Q169 373 161 346T141 293Q96 286 57 282T-20 271Q-53 266 -56 259T-42
234Q-11 208 22 195T108 186L106 172Q94 128 121 105T196 67Q224 59 236 60T257 80Q269 109 279 141T304 211Q349 218 393 221T482 232Q477 220 476 211T469 191Q467 179 466 169T466 151Q471 127 492 112T552 85Q578 77 593 78T616 98Q627 130 642 167T675 250Q713
252 748 254T818 259Q851 262 857 269T845 292Q833 304 822 312T796 325T762 334T713 337Q724 366 737 395T763 454Q805 456 844 457T922 461ZM561 439Q547 410 536 383T517 328Q475 325 432 322T343 314Q355 343 365 369T387 424Q429 429 471 432T561 439Z" />
<glyph unicode="$" glyph-name="dollar" horiz-adv-x="812" d="M321 668Q295 667 273 663T233 653Q155 625 101 579T18 488Q7 462 9 439T25 395T60 357T112 324Q154 302 206 283T302 248T369 219T376 197Q364 190 339 189T279 192T203 207T119 235Q103 242 82
246T39 252T-5 251T-44 241Q-64 233 -64 218Q-64 205 -20 175Q13 152 49 136T123 108Q115 86 112 59Q107 23 126 -12T196 -64Q224 -74 239 -72T260 -51Q266 -25 278 10T304 77Q306 76 321 76H341Q399 76 442 86T515 112T565 146T596 180Q609 205 602 225T572 262T517
295T447 325T372 355T301 388Q273 405 267 424T268 463T294 499T334 530T376 549T409 553Q420 550 420 539Q425 522 420 498T409 455Q407 437 416 423T442 397T483 376T537 360Q580 351 601 373Q610 386 618 404T632 442T641 481T645 517Q645 526 644 536T636 558T616
580T581 604Q564 612 549 619T519 631Q527 650 534 669T546 703Q557 739 534 765T466 809Q413 832 389 799Q375 776 357 740T321 668Z" />
<glyph unicode="%" glyph-name="percent" horiz-adv-x="1305" d="M1008 610Q1047 639 1039 667T992 722Q952 752 915 726Q880 702 839 685T754 656T671 639T601 636Q522 639 484 673Q469 686 456 696T431 714Q408 725 377 734T304 748Q279 751 247 747T189 733Q136
709 98 672T42 593T24 510T53 436Q68 422 86 408T125 386Q150 376 182 370T242 360Q326 353 389 382Q422 398 445 421T482 470T503 525T510 581Q565 570 624 573T737 595Q660 536 577 469T416 337T274 214T169 119Q150 99 145 84T144 55T162 31T196 8Q221 -2 233
-3T264 8Q299 42 355 91T480 196T622 311T767 426T900 530T1008 610ZM1093 281Q1088 299 1073 316T1030 348Q1010 358 976 367T906 382Q880 385 847 381T788 367Q719 337 677 287T623 185T632 87T711 20Q736 10 765 5T827 -4Q909 -13 972 16Q1005 32 1029 54T1070
103T1094 157T1102 212Q1102 231 1100 248T1093 281ZM926 307Q936 304 940 290T945 256T938 213T922 168Q897 113 864 85T805 64Q777 71 777 109Q777 129 783 152T805 202Q814 221 829 241T862 277T897 301T926 307ZM328 673Q341 670 345 657T350 624Q350 605 345
582T332 535Q311 478 280 451T220 431Q192 437 191 475T211 568Q220 587 235 607T268 642T301 667T328 673Z" />
<glyph unicode="&amp;" glyph-name="ampersand" horiz-adv-x="1142" d="M675 56Q697 46 715 35Q737 24 753 18T784 7T812 2T843 2Q876 6 895 12T939 30T965 50T935 77Q910 91 887 105T836 137Q847 144 855 152T876 168Q893 184 906 200T925 233T928 266T909 300Q895
314 871 314Q851 314 816 298Q781 280 752 264T689 233Q651 259 615 286T546 341Q581 354 617 368T687 396T751 425T803 457Q888 514 879 580T763 710Q719 737 680 751T603 771T526 776T444 769Q398 763 353 752T269 725T198 689T145 644Q100 592 107 544T172 431Q180
423 191 411T218 385Q153 362 99 337T4 283Q-35 253 -54 223T-68 162T-32 100T64 37Q123 10 178 -2T283 -17T378 -14T464 0Q579 18 675 56ZM420 456L414 463Q360 525 403 571Q414 584 436 597T485 622T543 641T603 654Q628 637 634 618T634 581T610 547T572 520Q544
503 505 487T420 456ZM506 162Q453 144 406 133T321 116T256 111T216 121Q205 129 205 142Q205 165 239 197T359 268Q397 239 432 213T506 162Z" />
<glyph unicode="&apos;" glyph-name="quotesingle" horiz-adv-x="466" d="M284 572Q302 585 324 605T367 648T406 694T436 738Q441 751 444 759T447 771Q447 783 422 803Q404 814 383 825T332 846Q271 871 249 836Q231 810 206 776T154 707T102 640T59 586Q34
555 97 547Q123 545 148 544T198 544Q249 546 284 572Z" />
<glyph unicode="(" glyph-name="parenleft" horiz-adv-x="535" d="M301 812Q189 732 120 634T27 433T29 227T132 38Q177 -7 231 -21T341 -33Q373 -30 378 -26T370 -4Q306 69 285 154T277 325T333 494T442 644Q518 722 396 808Q343 846 301 812Z" />
<glyph unicode=")" glyph-name="parenright" horiz-adv-x="596" d="M394 670Q369 721 308 758T139 806Q112 809 98 808T79 801T76 787T84 767Q133 674 143 566T127 353T41 154T-108 -2Q-143 -31 -77 -36Q53 -44 130 0Q220 54 285 134T387 305T426 491T394 670Z" />
<glyph unicode="*" glyph-name="asterisk" horiz-adv-x="1045" d="M871 505Q928 511 891 540Q875 553 857 563T816 578T764 585T695 584Q670 582 644 580T592 574Q599 592 607 611T627 650Q645 686 620 712T543 760Q490 783 471 749Q429 673 403 602Q378 614 357
627T308 654Q255 684 203 687T99 677Q47 662 90 636Q145 604 193 577T288 526Q217 514 155 501T42 476Q9 469 7 461T26 438Q64 410 109 397T220 397Q252 404 281 409T343 421Q338 410 337 398T330 372Q324 349 328 333T345 304T377 284T420 269Q452 259 463 261T482
281Q495 316 504 347T526 410Q551 399 576 387T634 361Q704 329 750 329Q796 329 838 344Q863 355 865 361T838 382Q785 408 739 430T647 475Q705 483 759 491T871 505Z" />
<glyph unicode="+" glyph-name="plus" horiz-adv-x="1074" d="M827 316Q859 316 867 322T865 346Q853 361 844 375T816 407Q786 435 728 437Q658 439 554 437Q562 457 573 475T592 511Q603 528 599 538T570 563Q548 577 513 590T444 611Q418 617 399 610T372 588Q352
558 334 517T297 428Q209 425 130 420T-7 407Q-19 405 -31 403T-50 396T-60 386T-57 371Q-46 354 -24 332T20 295Q32 287 42 283T62 277T83 275Q95 275 112 277Q145 281 180 284T253 290Q245 262 242 239T233 198Q230 165 277 148Q309 137 334 130T385 114Q416
106 427 109T444 131Q456 168 469 213T502 306Q587 311 667 312T827 316Z" />
<glyph unicode="," glyph-name="comma" horiz-adv-x="460" d="M84 -119Q99 -109 120 -93T164 -58T206 -20T240 17Q255 34 254 46T227 73Q198 90 166 102T101 125Q69 135 49 133T13 113Q-20 59 -67 8T-154 -92Q-181 -122 -125 -132Q-97 -139 -65 -143T0 -146Q25
-144 43 -139T84 -119Z" />
<glyph unicode="-" glyph-name="hyphen" horiz-adv-x="869" d="M-123 492Q-188 484 -145 438Q-127 418 -107 399T-57 360Q-29 339 -5 333T48 332Q101 341 159 347T277 358T399 366T519 372Q554 373 562 380T557 409Q542 427 528 446T493 487Q450 524 392 524Q326
524 254 521T113 514T-17 504T-123 492Z" />
<glyph unicode="." glyph-name="period" horiz-adv-x="486" d="M-42 73Q-44 50 -33 32T1 0T53 -19T117 -25Q150 -25 176 -18T220 0T250 23T266 44Q273 57 273 73Q273 96 246 119T161 154Q117 162 81 158T19 142T-23 112T-42 73Z" />
<glyph unicode="/" glyph-name="slash" horiz-adv-x="779" d="M708 713Q680 728 650 741T587 767Q525 793 488 756Q452 724 403 670T298 550T186 413T79 278T-12 160T-75 76Q-91 53 -88 36Q-85 18 -57 7Q-36 -2 -14 -11T40 -32Q73 -43 90 -40T121 -18Q152 19 199
74T303 193T419 324T537 454T643 568T724 653Q742 671 741 683T708 713Z" />
<glyph unicode="0" glyph-name="zero" horiz-adv-x="1005" d="M737 701Q692 721 627 734T488 755Q435 760 374 751T266 720Q159 669 91 592T-8 429T-36 260T9 110Q19 96 34 84T68 60T104 41T139 26Q190 9 246 0T356 -12Q441 -17 504 -8T625 35Q707 84 759 154T838
300T867 451T849 588Q838 621 813 648T737 701ZM537 620Q563 615 574 586T585 515Q585 473 576 427T552 338Q535 285 508 242T448 167T383 122T319 113Q287 120 271 147T250 214T255 299T284 390T335 478T402 555T473 606T537 620Z" />
<glyph unicode="1" glyph-name="one" horiz-adv-x="568" d="M458 652Q469 673 460 684T416 709Q378 725 341 735T266 751Q246 754 233 755T208 754T187 746T165 731Q139 710 108 682T55 625Q35 601 49 591T117 563Q94 506 73 438T33 303T2 178T-15 84Q-20 58 -11
43T24 17Q59 5 93 0T163 -12Q182 -15 194 -15T213 -14T225 -7T233 8Q244 51 260 105T295 217T335 337T378 455T419 563T458 652Z" />
<glyph unicode="2" glyph-name="two" horiz-adv-x="909" d="M326 143Q390 174 455 211T578 288T685 365T763 439Q790 468 808 495T832 550T828 604T788 660Q765 679 729 698T645 733T541 754T422 754Q316 742 225 699T68 592Q49 571 42 557T37 534T51 519T79 509Q109
503 142 500T208 497T271 504T328 522Q362 542 395 560T459 591T515 608T557 605T556 571T492 505T382 417T240 320T81 223T-79 138Q-96 129 -101 120T-105 102T-96 84T-79 68Q-69 59 -55 49T-24 28T7 9T35 -6Q45 -12 55 -16T79 -23T114 -24T167 -19Q210 -13 274
-6T409 7T549 18T671 25Q704 28 713 34T711 58Q703 73 686 92T651 125Q631 142 609 149T554 156Q532 156 505 155T447 153T386 149T326 143Z" />
<glyph unicode="3" glyph-name="three" horiz-adv-x="953" d="M548 371Q614 389 666 408T757 450Q788 468 807 494T828 552T810 618T741 688Q694 719 648 735T559 758T477 762T403 756Q356 750 311 738T227 710T156 676T101 641Q66 613 112 588Q135 576 169 568T241
558T314 559T376 575Q395 582 415 589T456 603T495 612T530 616Q554 616 563 607Q579 595 563 576T493 532T349 480T125 426Q69 414 106 377Q148 334 209 312T334 296Q386 300 417 298T477 282Q490 275 497 262T504 232T490 196T451 158Q422 139 389 128T316 115T226
121T114 150Q72 164 18 167T-81 152Q-95 147 -103 141T-109 126T-93 105T-48 76Q52 18 152 -3T345 -24Q466 -24 564 -1T737 85Q768 113 783 144T792 207T758 271T675 332Q647 347 615 355T548 371Z" />
<glyph unicode="4" glyph-name="four" horiz-adv-x="1043" d="M761 368Q793 444 820 512T873 631Q885 652 877 663T834 689Q813 696 780 706T710 728T641 748T587 761Q568 764 554 765T528 766T504 760T475 748Q416 715 342 668T195 568T57 462T-51 366Q-72 345
-72 329T-53 294Q-27 272 4 251T68 212Q97 195 123 194T180 196Q238 202 299 206T425 216Q410 171 400 137T385 78Q378 52 387 39T429 11Q461 0 495 -8T559 -22Q597 -28 611 -23T631 1Q645 49 665 107T711 232Q744 233 777 234T843 236Q878 238 887 245T889 271Q877
288 870 302T847 335Q820 367 761 368ZM207 346Q246 376 289 408T380 472T476 536T574 594Q548 539 525 480T477 361Q406 357 337 354T207 346Z" />
<glyph unicode="5" glyph-name="five" horiz-adv-x="865" d="M436 581Q529 588 614 594T777 606Q815 609 824 616T823 643Q815 661 808 681T783 720Q757 755 682 752Q588 750 490 746T286 732Q214 725 187 688Q132 606 94 538T33 414Q22 388 30 374T59 349Q75
342 87 337T110 327T131 318T154 308Q165 302 173 299T191 295T214 296T251 302Q271 306 297 308T350 311T397 310T427 304Q435 298 442 282T449 245Q449 225 438 202T405 160Q389 145 368 134T316 119T245 122T150 154Q131 163 105 167T51 172T-5 170T-55 157Q-70
152 -75 146T-79 132Q-76 115 -22 79Q38 28 124 9T304 -10Q387 -9 450 5T557 39T630 82T671 126Q703 171 711 211T707 284T660 344T576 389Q465 428 341 428Q359 463 383 502T436 581Z" />
<glyph unicode="6" glyph-name="six" horiz-adv-x="898" d="M392 454Q453 514 529 569T700 673Q731 690 724 702T684 726Q668 731 646 736T599 746T550 755T504 762Q481 765 466 765Q452 765 441 763T418 755T392 743Q260 674 174 599T37 452T-34 316T-55 205Q-56
169 -45 139T-6 85T64 40T172 4Q239 -10 291 -15T385 -18T459 -8T519 11Q561 29 600 58T669 125T714 206T724 294Q721 317 712 337T681 375T624 408T535 438Q500 446 465 450T392 454ZM240 265Q260 284 284 299T333 322T382 333T425 331Q466 320 464 284T429 202Q389
148 339 124T244 113Q206 124 207 164T240 265Z" />
<glyph unicode="7" glyph-name="seven" horiz-adv-x="944" d="M546 610Q480 552 415 490T290 362T175 232T77 103Q62 79 63 65T90 34Q116 17 149 3T216 -22Q251 -32 266 -30T295 -10Q353 64 422 143T565 298T714 446T860 577Q886 599 885 617T858 654Q840 669
817 688T761 728Q736 748 710 754T645 760Q576 758 497 755T340 748T190 737T64 721Q39 717 33 710T44 686Q51 677 62 667T85 647T109 628T130 611Q158 594 189 590T253 589Q278 591 314 593T389 599T469 605T546 610Z" />
<glyph unicode="8" glyph-name="eight" horiz-adv-x="959" d="M829 485Q861 515 867 545T860 604T813 659T733 708Q655 743 575 756T409 750Q309 727 232 689T106 600Q48 540 74 486T207 385Q157 365 112 344T31 298T-29 247T-59 188Q-73 127 -14 76T174 0Q241
-14 312 -18T450 -13T577 18T686 79Q727 115 750 150T768 221T721 292T592 364Q673 393 734 422T829 485ZM409 296Q440 281 453 266T467 233T458 199T431 163Q393 125 345 110T262 102Q249 105 237 111T219 127T214 150T227 179Q252 211 297 241T409 296ZM537 635Q621
596 579 552T383 448Q356 464 352 485T366 531T427 582T537 635Z" />
<glyph unicode="9" glyph-name="nine" horiz-adv-x="893" d="M286 250Q231 204 166 161T22 78Q6 70 1 64T-2 51T9 40T29 28Q60 13 87 6T150 -12Q188 -23 213 -18T271 0Q387 50 486 120T656 267T765 419T796 552Q792 588 773 616T719 667T636 708T524 742Q462 757
411 760T319 760T244 746T185 725Q135 702 92 666T21 586T-17 495T-11 402Q-4 376 11 355T53 317T117 285T209 260Q227 255 246 254T286 250ZM416 386Q359 351 306 364Q282 369 270 382T256 415T259 458T279 505Q295 531 317 554T365 595T415 620T462 624Q487 618
495 597T498 545T471 473T416 386Z" />
<glyph unicode=":" glyph-name="colon" horiz-adv-x="541" d="M37 385Q35 362 47 344T81 312T134 291T198 284Q231 284 257 291T302 310T333 334T350 356Q352 363 353 370T354 385Q354 408 328 431T242 466Q199 474 163 470T99 454T56 424T37 385ZM-64 84Q-70
61 -62 43T-36 12T9 -11T68 -23Q133 -31 180 -14T242 35Q246 48 245 66T233 101T198 133T132 155T56 159T-4 146T-44 120T-64 84Z" />
<glyph unicode=";" glyph-name="semicolon" horiz-adv-x="572" d="M134 -144Q147 -132 163 -113T195 -71T225 -25T249 20Q267 46 240 71T147 122Q118 135 92 145T46 158T11 157T-7 136Q-28 70 -57 8T-112 -112Q-131 -146 -68 -160Q-36 -168 -4 -173T59 -177Q84
-175 101 -168T134 -144ZM-79 462Q-73 435 -55 413T-10 374T48 350T114 341Q150 341 174 350T213 372T235 401T244 427Q247 442 242 461T220 499T174 534T99 559Q55 569 20 564T-38 545T-72 508T-79 462Z" />
<glyph unicode="&lt;" glyph-name="less" horiz-adv-x="766" d="M568 450Q599 456 603 464T585 488Q551 514 506 539Q488 549 472 552T437 555T393 548T330 534Q296 526 259 516T185 496T115 475T55 456Q31 450 19 439T0 413T-8 383T-15 353Q-21 344 -18 325Q-13
314 7 308Q119 280 229 251T440 190Q471 179 485 182T510 202Q524 225 530 260Q532 277 520 287T482 308Q440 322 386 338T266 371Q344 393 418 413T568 450Z" />
<glyph unicode="=" glyph-name="equal" horiz-adv-x="959" d="M150 192Q431 222 730 228Q762 229 771 235T770 258Q762 272 752 286T724 316Q697 344 638 344Q570 345 493 344T337 338T180 329T33 316Q7 313 -7 303T-7 275Q5 261 21 244T55 212Q73 197 94 193T150
192ZM165 398Q311 409 456 411T757 412Q789 410 799 416T801 439Q794 453 785 467T761 498Q739 526 675 529Q610 533 532 534T372 536T211 532T66 524Q40 522 24 514T20 486Q28 471 43 454T73 422Q91 405 110 401T165 398Z" />
<glyph unicode="&gt;" glyph-name="greater" horiz-adv-x="814" d="M658 397Q666 419 655 427T618 444Q559 462 495 479T367 513T246 542T143 565Q118 570 100 567T77 550Q72 533 73 511T79 474Q85 465 89 459T100 449T116 442T143 436Q194 425 245 413T350 386Q255
369 167 350T18 313Q-2 307 -11 298T-2 275Q23 258 48 242T99 214Q125 202 141 201T183 208Q225 220 267 230T355 250T449 270T554 290Q585 297 599 304T625 329Q644 357 658 397Z" />
<glyph unicode="?" glyph-name="question" horiz-adv-x="997" d="M196 198Q225 189 260 180T325 167T374 167T392 190Q401 228 425 256T482 305T555 343T635 375T712 406T779 444T830 492T855 553T839 622T763 698Q738 717 701 734T616 763T515 779T400 776Q300
765 214 727T59 629Q36 609 28 596T21 573T34 558T62 548Q95 539 129 535T197 532T261 541T315 560Q347 576 377 591T438 620T497 641T557 649Q577 649 595 642T618 619Q621 607 614 593T589 562T537 528T455 491Q416 475 367 455T272 407T194 343T154 260Q149
236 156 223T196 198ZM70 65Q66 42 76 25T106 -4T155 -24T216 -35Q288 -42 335 -24T394 23Q396 26 396 35V50Q396 62 392 73T375 95T340 115T282 132Q237 141 199 139T133 126T89 100T70 65Z" />
<glyph unicode="@" glyph-name="at" horiz-adv-x="1309" d="M1126 300Q1155 360 1152 423T1110 542T995 644T801 716Q723 734 640 739T476 738T319 710T180 655T70 574T0 467Q-22 403 -18 348T9 248T71 165T160 100T265 52T376 22Q476 1 550 1T678 11Q696 15 698
23T686 41Q665 56 631 66T563 82Q541 85 521 85T479 86T433 89T378 96Q352 101 321 112T261 142T207 187T170 247T159 324T185 419Q220 497 286 551T432 635T598 671T761 660Q821 647 861 625T925 576T960 519T972 458T968 399T953 347Q934 304 911 272T864 221T819
196T781 197Q770 202 770 218Q770 237 779 267T799 328T821 385T836 424T841 445T836 461T816 476T777 493Q765 518 737 536T671 562Q618 572 563 562T457 527T367 462T304 374Q280 326 285 291T315 231T375 191T449 169Q572 146 651 188Q694 148 770 136Q818 126
869 127T967 145T1056 200T1126 300ZM695 476Q673 421 648 374T596 294T544 243T495 229Q482 231 472 238T459 261T459 298T480 354Q495 387 522 415T577 463T629 493T664 502Q689 496 695 476Z" />
<glyph unicode="A" glyph-name="A" horiz-adv-x="1054" d="M605 186Q615 109 629 50Q636 22 650 11T700 -7Q735 -15 767 -16T838 -18Q876 -18 886 -11T895 14Q886 98 879 190T866 372T860 540T860 677Q861 700 849 714T796 737Q767 742 738 747T675 756T601 764T508
770Q449 773 418 760T367 726Q330 686 289 636T204 531T117 417T33 303T-42 194T-103 97Q-114 76 -114 64T-109 43T-89 30T-59 16Q-38 8 -15 2T26 -10Q59 -18 75 -15T106 5Q127 37 150 70T205 142Q245 149 292 155T392 166T498 176T605 186ZM334 316Q399 401 461
476T574 612Q574 546 578 476T587 334Q460 328 334 316Z" />
<glyph unicode="B" glyph-name="B" horiz-adv-x="1019" d="M689 364Q734 380 767 396T832 428Q861 444 885 462T925 502T946 545T942 592Q923 635 890 666T810 726Q775 746 721 756T601 769T465 767T323 752T189 728T75 698Q68 636 52 564T18 418T-18 274T-44
145Q-48 127 -47 115T-39 94T-21 76T7 55Q28 43 45 34T80 18T115 3T156 -10Q178 -19 196 -23T232 -29T270 -28T319 -20Q371 -11 429 2T545 33T653 70T741 114Q793 143 816 173T827 246Q816 281 780 313T689 364ZM328 427Q346 472 361 512T394 587Q450 603 498 611T584
620T645 617T675 601Q682 588 661 566T594 519T482 470T328 427ZM271 278Q327 290 373 294T453 296T508 286T537 269Q543 253 523 234T460 196T357 159T220 128Q231 166 244 203T271 278Z" />
<glyph unicode="C" glyph-name="C" horiz-adv-x="942" d="M684 206Q549 231 466 174Q352 92 293 106Q263 112 248 138T231 202T238 287T268 378Q288 420 321 467T391 553T464 616T526 635Q552 629 557 608T563 560Q563 546 568 528Q574 507 586 491T620 462T673
441T748 426Q771 423 784 424T805 428T817 438T825 451Q832 466 836 485T843 525T845 567Q845 588 843 606Q838 638 819 663T748 713Q722 723 690 733T621 751T547 764T473 772Q425 774 370 766T260 730Q191 694 135 645T36 538T-32 419T-67 298T-64 185T-20 91Q-10
77 5 65T38 43T75 24T114 10Q159 0 215 -11T339 -27Q372 -29 406 -27T472 -20T532 -6T581 11Q621 31 660 61T724 126Q734 141 739 153T742 176T725 193T684 206Z" />
<glyph unicode="D" glyph-name="D" horiz-adv-x="1076" d="M75 706L-48 155Q-55 131 -53 116T-43 89T-23 70T4 52Q42 32 72 19T143 -9Q223 -38 299 -18Q445 10 556 55T746 155T871 271T934 392T938 509T882 611Q836 664 772 696T635 744T483 762T331 758T191 737T75
706ZM227 138Q265 259 305 373T394 596Q479 613 538 600T623 558Q634 544 640 524T645 478Q642 440 619 394T545 302T417 213T227 138Z" />
<glyph unicode="E" glyph-name="E" horiz-adv-x="847" d="M99 710L-68 132Q-73 106 -61 87T-24 54Q4 36 26 25T73 2Q83 -3 95 -7T124 -13T161 -15T213 -9Q301 2 397 15T587 40Q625 45 632 52T631 80Q620 98 610 115T581 151Q566 168 543 174T482 178Q411 175 350
171T222 158Q234 184 244 211T266 268Q347 279 433 288T605 308Q643 313 651 320T649 348Q641 366 631 383T603 418Q588 435 566 440T506 445Q461 444 421 443T339 437Q360 482 377 523T414 601Q507 609 590 615T752 626Q790 629 800 636T803 665Q795 683 787 698T761
732Q739 767 667 766Q590 764 513 759T363 745T222 728T99 710Z" />
<glyph unicode="F" glyph-name="F" horiz-adv-x="836" d="M750 626Q788 629 796 636T799 664Q788 700 752 733Q740 743 730 750T708 760T684 765T651 766Q575 764 497 760T343 751T199 738T75 721Q77 682 68 628T44 511T9 385T-27 263T-59 158T-77 84Q-78 71 -78
61T-73 44T-58 30T-31 18Q-3 10 33 1T103 -12T160 -12T187 10Q205 64 228 131T279 271Q357 282 438 292T598 310Q636 313 646 321T645 349Q637 366 627 383T598 419Q569 449 502 446Q460 445 421 443T341 438Q363 484 377 525T409 600Q502 608 587 614T750 626Z"
/>
<glyph unicode="G" glyph-name="G" horiz-adv-x="972" d="M834 448Q838 462 841 482T845 523T845 567T840 606Q832 638 812 663T746 710Q723 722 693 731T630 748T563 761T495 769Q448 773 392 769T288 744Q214 711 152 663T44 559T-32 441T-73 320T-74 206T-31
108Q-13 80 22 57T95 19Q197 -13 312 -23Q441 -37 548 4Q627 37 693 97T805 242Q817 267 815 283T788 320Q774 331 759 344T726 368Q701 385 672 390T596 391Q556 387 502 383T396 371Q370 368 348 366T310 360T289 350T288 331Q313 280 358 258T488 238Q466 207
441 180T388 133T334 105T279 102Q249 109 233 137T216 206T225 294T262 384Q288 436 324 483T398 564T472 618T535 632Q548 630 553 619T563 593Q565 585 566 577T568 559Q568 550 569 542T572 526Q580 483 625 456T766 421Q800 419 813 425T834 448Z" />
<glyph unicode="H" glyph-name="H" horiz-adv-x="994" d="M942 664Q950 684 943 695T900 721Q862 735 822 746T744 764Q704 771 684 768T651 739Q625 673 597 587T537 410Q486 408 431 405T317 398Q345 473 369 538T416 649Q424 670 417 681T372 707Q337 721 291
733T205 752Q167 760 148 756T117 727Q97 660 76 576T31 404T-17 233T-68 83Q-80 57 -67 43T-20 17Q6 6 45 -1T119 -15Q138 -18 150 -18T169 -17T181 -9T189 6Q204 54 220 113T262 238Q320 244 377 249T493 260Q478 206 467 161T451 80Q444 62 450 49T471 27T511
10T565 -3Q595 -8 621 -12T665 -18T695 -14T706 5Q730 86 760 176T821 354T884 522T942 664Z" />
<glyph unicode="I" glyph-name="I" horiz-adv-x="458" d="M352 707Q317 721 271 733T185 752Q145 759 126 754T95 727Q79 690 61 637T24 524T-13 400T-46 277T-72 168T-88 83Q-93 57 -83 43T-40 17Q-8 6 26 -1T99 -15Q137 -21 150 -16T169 6Q182 50 199 104T235
218T276 338T318 455T359 562T396 649Q400 659 401 667T398 681T382 694T352 707Z" />
<glyph unicode="J" glyph-name="J" horiz-adv-x="920" d="M202 -13Q257 -22 302 -23T384 -21T450 -9T506 10Q569 38 620 96T711 239T783 429T838 661Q841 671 841 678T835 692T820 704T790 718Q752 732 704 742T618 760Q578 766 558 761T530 733Q519 683 504 617T468
480T425 342T376 221T322 135T264 104Q247 105 237 111T222 128T215 157T209 198Q206 272 46 314Q-2 328 -24 313T-57 266Q-69 223 -68 190T-46 124Q-34 101 -15 81T33 42T104 10T202 -13Z" />
<glyph unicode="K" glyph-name="K" horiz-adv-x="975" d="M484 292Q544 329 609 371T733 456T840 537T917 608Q939 633 941 650T931 684Q912 705 892 723T843 755T792 769Q774 769 752 752Q721 727 670 691T558 613T433 528T312 445Q337 511 357 565T398 661Q410
682 401 692T354 718Q319 732 273 744T187 763Q149 770 129 765T97 738Q81 701 63 648T25 533T-14 406T-49 281T-76 169T-92 83Q-99 46 -71 28T22 -2Q54 -8 81 -13T127 -20T156 -16T167 6Q182 51 198 105T235 222Q264 193 298 164T365 108T425 61T469 28Q508 -1
547 -5T625 -2Q650 0 675 5T719 17Q751 27 755 37T735 65Q711 83 680 109T615 165T547 229T484 292Z" />
<glyph unicode="L" glyph-name="L" horiz-adv-x="781" d="M561 41Q583 44 594 47T609 54T611 64T603 82Q596 99 585 117T554 152Q536 170 515 175T455 179Q389 176 332 172T209 161Q231 225 257 293T310 427T363 554T414 664Q425 684 417 695T374 721T293 746T207
764Q169 771 149 767T114 740Q94 699 73 649T32 542T-8 428T-44 316T-73 213T-92 127Q-99 103 -88 86T-51 54Q-18 36 1 25T46 2Q56 -3 67 -7T94 -13T132 -15T187 -8Q275 4 371 16T561 41Z" />
<glyph unicode="M" glyph-name="M" horiz-adv-x="1355" d="M301 457Q316 369 338 283T385 128Q392 111 398 100T413 82T433 71T460 62Q508 51 561 44Q581 41 592 41T611 45T623 54T636 72Q658 106 694 155T773 259T859 369T942 470Q922 418 904 361T872 251T848
153T834 79Q827 54 838 39T884 13Q911 3 946 -4T1016 -16Q1054 -22 1067 -14T1089 12Q1098 47 1112 97T1145 204T1183 324T1224 446T1263 557T1298 649Q1309 675 1298 689T1247 715Q1189 731 1130 742T1016 762Q972 770 944 769T894 755T850 720T801 661Q772 629
741 592T679 516T620 441T570 373Q549 460 537 510T519 588T512 625T510 642Q506 657 502 669T487 691T460 709T411 724Q364 735 316 743T200 757Q155 761 134 754T99 721Q83 684 65 632T27 521T-11 400T-45 278T-72 167T-88 78Q-93 52 -82 38T-35 12Q-7 2 27 -5T95
-18Q130 -23 143 -18T163 6Q172 48 186 101T219 214T258 335T301 457Z" />
<glyph unicode="N" glyph-name="N" horiz-adv-x="1030" d="M568 314Q552 359 537 407T507 500T482 582T464 643Q456 673 440 688T383 714Q335 728 290 737T198 754Q160 760 137 754T101 725Q83 683 64 627T26 509T-12 383T-45 262T-71 160T-86 88Q-93 62 -84 48T-42
22Q-10 8 26 2T97 -11Q135 -18 148 -14T167 8Q176 44 190 91T221 191T256 301T293 415Q310 368 329 321T369 230T410 146T451 77Q478 33 541 17Q576 9 610 3T680 -9Q758 -21 766 17Q785 86 810 171T862 344T916 512T968 655Q972 665 973 674T970 690T956 705T926
719Q903 728 886 733T854 742T823 748T788 754Q748 760 727 755T697 727Q664 642 629 536T568 314Z" />
<glyph unicode="O" glyph-name="O" horiz-adv-x="1019" d="M748 704Q703 725 637 739T497 761Q470 764 440 763T380 756T323 743T273 724Q168 671 97 593T-8 429T-38 259T13 109Q33 81 70 59T145 23Q193 6 252 -2T365 -15Q449 -21 513 -11T636 31Q718 82 771 152T851
299T880 451T862 589Q849 624 824 652T748 704ZM543 625Q570 620 582 590T596 518T589 428T563 338Q543 285 515 240T454 164T389 117T326 109Q294 116 278 145T260 214T267 302T297 391Q317 432 347 476T412 554T481 609T543 625Z" />
<glyph unicode="P" glyph-name="P" horiz-adv-x="1038" d="M279 210Q364 225 449 246T611 292T753 347T862 406Q889 424 911 443T947 482T964 525T955 574Q930 625 890 660T803 724Q765 746 714 754T605 762T482 753T355 731T233 701T123 668Q110 664 98 626T73
529T47 403T21 270T-7 154T-37 79Q-48 53 -36 37T3 11T65 -6T139 -20Q176 -25 189 -20T211 1Q225 52 242 104T279 210ZM343 382Q365 437 385 486T427 581Q476 594 522 600T606 607T668 603T697 588Q708 570 691 543T628 487T512 430T343 382Z" />
<glyph unicode="Q" glyph-name="Q" horiz-adv-x="1016" d="M807 38Q786 53 769 69T726 102Q781 154 815 217T865 346T879 475T860 589Q847 624 823 652T748 704Q703 725 637 739T497 761Q470 764 440 763T380 756T323 743T273 724Q168 671 97 593T-8 429T-38 259T13
109Q33 81 70 59T145 23Q193 6 250 -3T365 -15Q419 -17 467 -15T557 0Q563 -3 569 -6T583 -14Q631 -42 697 -34Q724 -30 750 -24T801 -8Q829 1 830 11T807 38ZM389 118Q355 101 326 109Q301 115 287 133T265 177T259 235T266 302Q284 369 320 434T411 554Q438 581
464 599T514 623T556 622T583 590Q592 569 594 539T594 474T583 404T561 338Q550 303 535 272T497 215Q457 210 426 204T370 190Q318 173 354 146Q362 139 370 132T389 118Z" />
<glyph unicode="R" glyph-name="R" horiz-adv-x="1067" d="M273 228Q310 198 355 168T447 109T536 57T614 17Q665 -4 704 -6T774 -3Q801 0 819 2T862 19Q884 30 886 40T858 67Q821 87 779 113T695 166T612 222T539 274Q694 319 801 370T950 482Q965 501 965 523T955
574Q930 625 890 660T803 724Q745 757 670 764T511 763T341 734T174 691Q151 684 128 644T84 544T43 416T9 281T-18 161T-37 79Q-42 53 -33 38T2 11Q28 1 59 -3T128 -14Q163 -19 176 -14T196 7Q214 61 232 115T273 228ZM427 584Q478 599 523 605T607 611Q685 611
702 588Q711 574 690 548T622 493T502 435T337 386Q363 443 384 492T427 584Z" />
<glyph unicode="S" glyph-name="S" horiz-adv-x="882" d="M-106 195Q-134 185 -134 167Q-134 151 -75 113Q38 38 148 8T376 -20Q464 -19 527 -5T632 29T699 73T737 118Q757 146 748 170T709 216T634 258T540 299T440 342T350 388Q319 406 311 428T308 473T334
518T377 560T427 595T475 617Q499 628 510 626T523 614T521 587T510 551T497 513T488 480Q476 408 664 366Q697 358 714 362T746 385Q759 404 771 430T794 483T811 538T821 587Q820 599 818 612T809 640T786 669T744 699Q704 721 645 739T528 769Q491 776 456 777T391
775T337 766T297 752Q251 735 205 710T119 655T50 594T7 534Q-13 500 -13 468T0 408T43 355T108 311Q142 292 184 274T269 237T351 203T416 172T451 147T444 129Q424 118 391 117T315 122T219 146T108 186Q87 195 61 200T7 206T-51 205T-106 195Z" />
<glyph unicode="T" glyph-name="T" horiz-adv-x="975" d="M891 634Q911 635 922 637T937 642T940 652T935 668Q924 688 905 709T860 748Q847 758 829 762T772 767Q722 766 663 764T539 758T408 751T277 742T152 732T42 720Q17 716 9 710T13 686Q27 669 47 643T95
600Q120 583 140 580T194 581Q219 585 254 588T328 595Q305 538 282 468T239 328T204 193T183 82Q176 63 182 50T205 26T246 9T301 -4Q332 -10 357 -15T401 -21T431 -17T444 2Q464 73 489 152T543 311T600 470T656 620Q720 624 780 627T891 634Z" />
<glyph unicode="U" glyph-name="U" horiz-adv-x="992" d="M0 102Q22 74 53 55T119 22Q203 -10 334 -16Q400 -19 451 -13T554 11Q625 39 679 98T775 240T851 429T915 656Q922 677 916 688T871 713Q836 725 794 737T715 756T653 757T625 730Q612 680 593 613T550
474T498 335T437 214T368 133T293 110Q261 116 251 144T244 215T264 311T302 418T349 526T396 622Q419 671 350 702Q317 716 282 727T209 745Q169 753 149 749T117 722Q77 645 39 558T-22 386T-43 227T0 102Z" />
<glyph unicode="V" glyph-name="V" horiz-adv-x="1025" d="M968 647Q979 665 977 678T961 702T927 722T880 740Q855 749 831 756T786 764T749 761T724 742Q646 616 563 479T387 209Q374 276 363 341T343 467T325 578T310 670Q301 721 218 739Q183 747 153 750T84
754Q65 754 54 752T38 746T31 734T29 716Q42 549 67 399T132 119Q136 107 144 94T167 68T200 43T246 22Q294 6 338 -4T433 -24Q485 -34 512 -28T561 4Q592 45 629 98T707 211T787 333T862 453T924 561T968 647Z" />
<glyph unicode="W" glyph-name="W" horiz-adv-x="1410" d="M260 254Q264 308 271 366T285 478T299 573T308 636Q311 647 311 659T305 682T290 704T260 721Q227 733 190 739T106 752Q66 757 51 750T31 719Q24 674 19 619T10 505T4 386T2 267Q2 210 5 159T13 67Q15
39 28 26T77 4Q115 -4 156 -11T242 -24Q275 -28 295 -25T334 0Q352 25 379 62T439 143T507 231T576 318Q576 286 580 251T590 183T602 120T612 70Q617 49 634 32T693 4Q714 1 730 -2T763 -9T799 -15T845 -22Q893 -28 918 -23T957 2Q981 43 1012 95T1079 204T1153
322T1228 438T1300 546T1364 635Q1378 655 1376 675T1342 713Q1287 738 1223 755Q1202 760 1188 762T1164 763T1144 755T1126 736Q1106 709 1070 657T988 539T895 401T805 262Q809 315 814 369T823 471T831 553T834 602Q834 614 833 623T828 638T813 649T783 659Q766
663 752 666T723 673T694 678T660 684Q622 689 604 684T570 662Q549 641 513 596T433 493T345 372T260 254Z" />
<glyph unicode="X" glyph-name="X" horiz-adv-x="1038" d="M442 545Q414 587 389 625T343 695Q325 717 302 731T233 748Q212 749 191 749T152 750H114Q104 750 94 750Q85 750 77 749Q39 746 31 737T35 703Q51 678 73 644T121 571T177 488T238 400Q187 360 140
320T50 243T-29 173T-92 113Q-114 92 -114 77Q-114 68 -101 55T-67 29T-24 3T18 -17Q75 -43 112 -12Q163 30 228 86T372 206Q418 140 452 95T504 32Q516 20 527 12T550 -2T577 -11T612 -16Q693 -20 766 -16Q799 -13 805 -4T794 25Q748 91 692 174T574 348Q674 426
762 494T917 614Q939 631 944 649T924 689Q904 706 875 726T814 760Q783 771 757 771Q731 771 706 754Q655 718 589 665T442 545Z" />
<glyph unicode="Y" glyph-name="Y" horiz-adv-x="955" d="M889 644Q907 669 905 683T878 714Q857 726 827 740T766 763T711 771T675 751Q611 679 544 606T405 460Q370 532 338 595T277 706Q268 718 260 727T242 742T219 753T187 760Q149 765 112 764T37 761Q2
758 -4 751T0 722Q20 678 45 625T99 514T156 400T211 288Q193 225 182 171T158 74Q153 48 163 35T205 7Q236 -2 274 -10T348 -26Q385 -32 398 -28T420 -3Q435 51 452 107T495 227Q554 284 615 345T731 462T827 565T889 644Z" />
<glyph unicode="Z" glyph-name="Z" horiz-adv-x="825" d="M436 601Q359 541 279 473T125 338T-8 214T-103 116Q-114 104 -114 94T-109 75T-93 58T-73 43Q-41 25 -20 13T26 -11Q38 -17 50 -21T79 -27T116 -29T167 -23Q211 -16 260 -10T359 3T460 16T557 28Q595
31 605 39T605 67Q592 100 554 138Q540 154 513 160T447 164Q389 159 337 154T231 140Q365 255 506 372T781 595Q806 614 807 630T796 665Q788 679 780 695T752 732Q738 749 719 756T662 762Q592 760 514 757T357 748T206 736T75 721Q50 716 43 710T46 685Q60 667
81 643T117 605Q142 587 171 582T235 581Q282 587 330 591T436 601Z" />
<glyph unicode="[" glyph-name="bracketleft" horiz-adv-x="669" d="M460 35Q448 52 441 68T416 101Q386 133 319 128Q294 127 272 126T224 124Q242 181 264 245T310 373T360 500T411 616Q456 618 499 621T581 626Q616 629 627 636T627 662Q619 680 609 695T581
728Q566 745 545 754T488 762Q435 761 373 759T251 752Q187 747 174 716Q145 654 115 575T58 414T7 253T-29 112Q-35 83 -26 66T4 34Q26 23 45 12T86 -8Q111 -19 139 -23T209 -23Q260 -17 314 -11T414 0Q452 0 461 8T460 35Z" />
<glyph unicode="\" glyph-name="backslash" horiz-adv-x="788" d="M233 768Q193 773 159 774T86 774Q9 772 26 731Q39 692 64 634T120 508T187 369T256 231T321 111T374 22Q383 10 391 1T410 -14T432 -24T462 -29Q492 -32 521 -32Q551 -32 583 -30Q621 -28 629
-20T627 5Q605 48 577 107T519 233T458 370T400 505T350 626T315 721Q309 733 303 740T289 753T267 762T233 768Z" />
<glyph unicode="]" glyph-name="bracketright" horiz-adv-x="700" d="M574 631Q581 649 578 661T550 691Q532 705 515 716T480 739Q458 753 437 758T378 761Q306 758 242 754T125 744Q93 741 84 731T78 705T97 673T128 640Q142 622 162 617T222 613Q240 614 257
615T293 618Q271 564 247 501T198 373T152 243T114 125Q72 121 27 115T-51 104Q-115 93 -81 61Q-67 44 -52 29T-22 1Q-4 -11 15 -16T75 -18Q121 -13 170 -9T271 0Q295 0 309 3T332 10T345 21T352 34Q372 95 398 174T454 334T514 494T574 631Z" />
<glyph unicode="^" glyph-name="asciicircum" horiz-adv-x="983" d="M722 353Q753 352 762 358T763 382Q750 410 733 446T699 523T667 604T640 683Q633 707 623 717T592 742Q570 753 545 763T493 784Q468 792 448 792T400 774Q349 745 297 710T198 640T110 573T44
517Q13 491 46 463Q66 446 84 434T123 410Q146 397 161 397Q180 397 196 410Q247 448 307 493T440 584Q465 530 486 482T528 402Q551 370 605 362Q638 357 666 356T722 353Z" />
<glyph unicode="_" glyph-name="underscore" horiz-adv-x="946" d="M4 -220H988Q1014 -222 1030 -217T1055 -202T1069 -181T1078 -158Q1083 -146 1088 -135T1091 -116T1076 -102T1034 -98H53Q20 -98 3 -105T-22 -130Q-30 -145 -34 -159T-44 -187Q-52 -205 -40
-212T4 -220Z" />
<glyph unicode="`" glyph-name="grave" horiz-adv-x="869" d="M191 972Q227 958 277 941T385 907T506 874T629 845Q655 838 686 842T755 859Q754 858 762 862T776 873T780 888T755 905Q704 918 652 933T550 964T452 997T365 1032Q344 1042 316 1042T242 1027Q217
1020 207 1007T191 972Z" />
<glyph unicode="a" glyph-name="a" horiz-adv-x="1054" d="M605 186Q615 109 629 50Q636 22 650 11T700 -7Q735 -15 767 -16T838 -18Q876 -18 886 -11T895 14Q886 98 879 190T866 372T860 540T860 677Q861 700 849 714T796 737Q767 742 738 747T675 756T601 764T508
770Q449 773 418 760T367 726Q330 686 289 636T204 531T117 417T33 303T-42 194T-103 97Q-114 76 -114 64T-109 43T-89 30T-59 16Q-38 8 -15 2T26 -10Q59 -18 75 -15T106 5Q127 37 150 70T205 142Q245 149 292 155T392 166T498 176T605 186ZM334 316Q399 401 461
476T574 612Q574 546 578 476T587 334Q460 328 334 316Z" />
<glyph unicode="b" glyph-name="b" horiz-adv-x="1019" d="M689 364Q734 380 767 396T832 428Q861 444 885 462T925 502T946 545T942 592Q923 635 890 666T810 726Q775 746 721 756T601 769T465 767T323 752T189 728T75 698Q68 636 52 564T18 418T-18 274T-44
145Q-48 127 -47 115T-39 94T-21 76T7 55Q28 43 45 34T80 18T115 3T156 -10Q178 -19 196 -23T232 -29T270 -28T319 -20Q371 -11 429 2T545 33T653 70T741 114Q793 143 816 173T827 246Q816 281 780 313T689 364ZM328 427Q346 472 361 512T394 587Q450 603 498 611T584
620T645 617T675 601Q682 588 661 566T594 519T482 470T328 427ZM271 278Q327 290 373 294T453 296T508 286T537 269Q543 253 523 234T460 196T357 159T220 128Q231 166 244 203T271 278Z" />
<glyph unicode="c" glyph-name="c" horiz-adv-x="942" d="M684 206Q549 231 466 174Q352 92 293 106Q263 112 248 138T231 202T238 287T268 378Q288 420 321 467T391 553T464 616T526 635Q552 629 557 608T563 560Q563 546 568 528Q574 507 586 491T620 462T673
441T748 426Q771 423 784 424T805 428T817 438T825 451Q832 466 836 485T843 525T845 567Q845 588 843 606Q838 638 819 663T748 713Q722 723 690 733T621 751T547 764T473 772Q425 774 370 766T260 730Q191 694 135 645T36 538T-32 419T-67 298T-64 185T-20 91Q-10
77 5 65T38 43T75 24T114 10Q159 0 215 -11T339 -27Q372 -29 406 -27T472 -20T532 -6T581 11Q621 31 660 61T724 126Q734 141 739 153T742 176T725 193T684 206Z" />
<glyph unicode="d" glyph-name="d" horiz-adv-x="1076" d="M75 706L-48 155Q-55 131 -53 116T-43 89T-23 70T4 52Q42 32 72 19T143 -9Q223 -38 299 -18Q445 10 556 55T746 155T871 271T934 392T938 509T882 611Q836 664 772 696T635 744T483 762T331 758T191 737T75
706ZM227 138Q265 259 305 373T394 596Q479 613 538 600T623 558Q634 544 640 524T645 478Q642 440 619 394T545 302T417 213T227 138Z" />
<glyph unicode="e" glyph-name="e" horiz-adv-x="847" d="M99 710L-68 132Q-73 106 -61 87T-24 54Q4 36 26 25T73 2Q83 -3 95 -7T124 -13T161 -15T213 -9Q301 2 397 15T587 40Q625 45 632 52T631 80Q620 98 610 115T581 151Q566 168 543 174T482 178Q411 175 350
171T222 158Q234 184 244 211T266 268Q347 279 433 288T605 308Q643 313 651 320T649 348Q641 366 631 383T603 418Q588 435 566 440T506 445Q461 444 421 443T339 437Q360 482 377 523T414 601Q507 609 590 615T752 626Q790 629 800 636T803 665Q795 683 787 698T761
732Q739 767 667 766Q590 764 513 759T363 745T222 728T99 710Z" />
<glyph unicode="f" glyph-name="f" horiz-adv-x="836" d="M750 626Q788 629 796 636T799 664Q788 700 752 733Q740 743 730 750T708 760T684 765T651 766Q575 764 497 760T343 751T199 738T75 721Q77 682 68 628T44 511T9 385T-27 263T-59 158T-77 84Q-78 71 -78
61T-73 44T-58 30T-31 18Q-3 10 33 1T103 -12T160 -12T187 10Q205 64 228 131T279 271Q357 282 438 292T598 310Q636 313 646 321T645 349Q637 366 627 383T598 419Q569 449 502 446Q460 445 421 443T341 438Q363 484 377 525T409 600Q502 608 587 614T750 626Z"
/>
<glyph unicode="g" glyph-name="g" horiz-adv-x="972" d="M834 448Q838 462 841 482T845 523T845 567T840 606Q832 638 812 663T746 710Q723 722 693 731T630 748T563 761T495 769Q448 773 392 769T288 744Q214 711 152 663T44 559T-32 441T-73 320T-74 206T-31
108Q-13 80 22 57T95 19Q197 -13 312 -23Q441 -37 548 4Q627 37 693 97T805 242Q817 267 815 283T788 320Q774 331 759 344T726 368Q701 385 672 390T596 391Q556 387 502 383T396 371Q370 368 348 366T310 360T289 350T288 331Q313 280 358 258T488 238Q466 207
441 180T388 133T334 105T279 102Q249 109 233 137T216 206T225 294T262 384Q288 436 324 483T398 564T472 618T535 632Q548 630 553 619T563 593Q565 585 566 577T568 559Q568 550 569 542T572 526Q580 483 625 456T766 421Q800 419 813 425T834 448Z" />
<glyph unicode="h" glyph-name="h" horiz-adv-x="994" d="M942 664Q950 684 943 695T900 721Q862 735 822 746T744 764Q704 771 684 768T651 739Q625 673 597 587T537 410Q486 408 431 405T317 398Q345 473 369 538T416 649Q424 670 417 681T372 707Q337 721 291
733T205 752Q167 760 148 756T117 727Q97 660 76 576T31 404T-17 233T-68 83Q-80 57 -67 43T-20 17Q6 6 45 -1T119 -15Q138 -18 150 -18T169 -17T181 -9T189 6Q204 54 220 113T262 238Q320 244 377 249T493 260Q478 206 467 161T451 80Q444 62 450 49T471 27T511
10T565 -3Q595 -8 621 -12T665 -18T695 -14T706 5Q730 86 760 176T821 354T884 522T942 664Z" />
<glyph unicode="i" glyph-name="i" horiz-adv-x="458" d="M352 707Q317 721 271 733T185 752Q145 759 126 754T95 727Q79 690 61 637T24 524T-13 400T-46 277T-72 168T-88 83Q-93 57 -83 43T-40 17Q-8 6 26 -1T99 -15Q137 -21 150 -16T169 6Q182 50 199 104T235
218T276 338T318 455T359 562T396 649Q400 659 401 667T398 681T382 694T352 707Z" />
<glyph unicode="j" glyph-name="j" horiz-adv-x="920" d="M202 -13Q257 -22 302 -23T384 -21T450 -9T506 10Q569 38 620 96T711 239T783 429T838 661Q841 671 841 678T835 692T820 704T790 718Q752 732 704 742T618 760Q578 766 558 761T530 733Q519 683 504 617T468
480T425 342T376 221T322 135T264 104Q247 105 237 111T222 128T215 157T209 198Q206 272 46 314Q-2 328 -24 313T-57 266Q-69 223 -68 190T-46 124Q-34 101 -15 81T33 42T104 10T202 -13Z" />
<glyph unicode="k" glyph-name="k" horiz-adv-x="975" d="M484 292Q544 329 609 371T733 456T840 537T917 608Q939 633 941 650T931 684Q912 705 892 723T843 755T792 769Q774 769 752 752Q721 727 670 691T558 613T433 528T312 445Q337 511 357 565T398 661Q410
682 401 692T354 718Q319 732 273 744T187 763Q149 770 129 765T97 738Q81 701 63 648T25 533T-14 406T-49 281T-76 169T-92 83Q-99 46 -71 28T22 -2Q54 -8 81 -13T127 -20T156 -16T167 6Q182 51 198 105T235 222Q264 193 298 164T365 108T425 61T469 28Q508 -1
547 -5T625 -2Q650 0 675 5T719 17Q751 27 755 37T735 65Q711 83 680 109T615 165T547 229T484 292Z" />
<glyph unicode="l" glyph-name="l" horiz-adv-x="781" d="M561 41Q583 44 594 47T609 54T611 64T603 82Q596 99 585 117T554 152Q536 170 515 175T455 179Q389 176 332 172T209 161Q231 225 257 293T310 427T363 554T414 664Q425 684 417 695T374 721T293 746T207
764Q169 771 149 767T114 740Q94 699 73 649T32 542T-8 428T-44 316T-73 213T-92 127Q-99 103 -88 86T-51 54Q-18 36 1 25T46 2Q56 -3 67 -7T94 -13T132 -15T187 -8Q275 4 371 16T561 41Z" />
<glyph unicode="m" glyph-name="m" horiz-adv-x="1355" d="M301 457Q316 369 338 283T385 128Q392 111 398 100T413 82T433 71T460 62Q508 51 561 44Q581 41 592 41T611 45T623 54T636 72Q658 106 694 155T773 259T859 369T942 470Q922 418 904 361T872 251T848
153T834 79Q827 54 838 39T884 13Q911 3 946 -4T1016 -16Q1054 -22 1067 -14T1089 12Q1098 47 1112 97T1145 204T1183 324T1224 446T1263 557T1298 649Q1309 675 1298 689T1247 715Q1189 731 1130 742T1016 762Q972 770 944 769T894 755T850 720T801 661Q772 629
741 592T679 516T620 441T570 373Q549 460 537 510T519 588T512 625T510 642Q506 657 502 669T487 691T460 709T411 724Q364 735 316 743T200 757Q155 761 134 754T99 721Q83 684 65 632T27 521T-11 400T-45 278T-72 167T-88 78Q-93 52 -82 38T-35 12Q-7 2 27 -5T95
-18Q130 -23 143 -18T163 6Q172 48 186 101T219 214T258 335T301 457Z" />
<glyph unicode="n" glyph-name="n" horiz-adv-x="1030" d="M568 314Q552 359 537 407T507 500T482 582T464 643Q456 673 440 688T383 714Q335 728 290 737T198 754Q160 760 137 754T101 725Q83 683 64 627T26 509T-12 383T-45 262T-71 160T-86 88Q-93 62 -84 48T-42
22Q-10 8 26 2T97 -11Q135 -18 148 -14T167 8Q176 44 190 91T221 191T256 301T293 415Q310 368 329 321T369 230T410 146T451 77Q478 33 541 17Q576 9 610 3T680 -9Q758 -21 766 17Q785 86 810 171T862 344T916 512T968 655Q972 665 973 674T970 690T956 705T926
719Q903 728 886 733T854 742T823 748T788 754Q748 760 727 755T697 727Q664 642 629 536T568 314Z" />
<glyph unicode="o" glyph-name="o" horiz-adv-x="1019" d="M748 704Q703 725 637 739T497 761Q470 764 440 763T380 756T323 743T273 724Q168 671 97 593T-8 429T-38 259T13 109Q33 81 70 59T145 23Q193 6 252 -2T365 -15Q449 -21 513 -11T636 31Q718 82 771 152T851
299T880 451T862 589Q849 624 824 652T748 704ZM543 625Q570 620 582 590T596 518T589 428T563 338Q543 285 515 240T454 164T389 117T326 109Q294 116 278 145T260 214T267 302T297 391Q317 432 347 476T412 554T481 609T543 625Z" />
<glyph unicode="p" glyph-name="p" horiz-adv-x="1038" d="M279 210Q364 225 449 246T611 292T753 347T862 406Q889 424 911 443T947 482T964 525T955 574Q930 625 890 660T803 724Q765 746 714 754T605 762T482 753T355 731T233 701T123 668Q110 664 98 626T73
529T47 403T21 270T-7 154T-37 79Q-48 53 -36 37T3 11T65 -6T139 -20Q176 -25 189 -20T211 1Q225 52 242 104T279 210ZM343 382Q365 437 385 486T427 581Q476 594 522 600T606 607T668 603T697 588Q708 570 691 543T628 487T512 430T343 382Z" />
<glyph unicode="q" glyph-name="q" horiz-adv-x="1016" d="M807 38Q786 53 769 69T726 102Q781 154 815 217T865 346T879 475T860 589Q847 624 823 652T748 704Q703 725 637 739T497 761Q470 764 440 763T380 756T323 743T273 724Q168 671 97 593T-8 429T-38 259T13
109Q33 81 70 59T145 23Q193 6 250 -3T365 -15Q419 -17 467 -15T557 0Q563 -3 569 -6T583 -14Q631 -42 697 -34Q724 -30 750 -24T801 -8Q829 1 830 11T807 38ZM389 118Q355 101 326 109Q301 115 287 133T265 177T259 235T266 302Q284 369 320 434T411 554Q438 581
464 599T514 623T556 622T583 590Q592 569 594 539T594 474T583 404T561 338Q550 303 535 272T497 215Q457 210 426 204T370 190Q318 173 354 146Q362 139 370 132T389 118Z" />
<glyph unicode="r" glyph-name="r" horiz-adv-x="1067" d="M273 228Q310 198 355 168T447 109T536 57T614 17Q665 -4 704 -6T774 -3Q801 0 819 2T862 19Q884 30 886 40T858 67Q821 87 779 113T695 166T612 222T539 274Q694 319 801 370T950 482Q965 501 965 523T955
574Q930 625 890 660T803 724Q745 757 670 764T511 763T341 734T174 691Q151 684 128 644T84 544T43 416T9 281T-18 161T-37 79Q-42 53 -33 38T2 11Q28 1 59 -3T128 -14Q163 -19 176 -14T196 7Q214 61 232 115T273 228ZM427 584Q478 599 523 605T607 611Q685 611
702 588Q711 574 690 548T622 493T502 435T337 386Q363 443 384 492T427 584Z" />
<glyph unicode="s" glyph-name="s" horiz-adv-x="882" d="M-106 198Q-134 188 -134 170Q-134 152 -73 115Q40 40 150 9T381 -20Q469 -19 531 -5T636 30T703 75T741 120Q761 149 752 173T714 220T639 263T544 305T444 348T352 395Q322 413 314 435T311 481T336
528T379 570T430 605T480 628Q504 639 515 637T528 625T526 597T515 561T502 523T493 488Q480 415 669 373Q704 364 721 369T752 391Q765 410 778 436T801 491T818 548T827 597Q826 609 825 623T816 651T793 681T750 711Q708 733 649 751T532 782Q494 789 459 790T394
788T339 779T299 765Q252 748 206 722T119 666T50 605T7 543Q-13 508 -13 476T0 416T43 362T108 317Q142 298 185 279T272 242T354 207T419 176T454 151T447 132Q407 110 317 124T108 190Q87 199 61 204T7 210T-51 209T-106 198Z" />
<glyph unicode="t" glyph-name="t" horiz-adv-x="975" d="M891 634Q911 635 922 637T937 642T940 652T935 668Q924 688 905 709T860 748Q847 758 829 762T772 767Q722 766 663 764T539 758T408 751T277 742T152 732T42 720Q17 716 9 710T13 686Q27 669 47 643T95
600Q120 583 140 580T194 581Q219 585 254 588T328 595Q305 538 282 468T239 328T204 193T183 82Q176 63 182 50T205 26T246 9T301 -4Q332 -10 357 -15T401 -21T431 -17T444 2Q464 73 489 152T543 311T600 470T656 620Q720 624 780 627T891 634Z" />
<glyph unicode="u" glyph-name="u" horiz-adv-x="992" d="M0 102Q22 74 53 55T119 22Q203 -10 334 -16Q400 -19 451 -13T554 11Q625 39 679 98T775 240T851 429T915 656Q922 677 916 688T871 713Q836 725 794 737T715 756T653 757T625 730Q612 680 593 613T550
474T498 335T437 214T368 133T293 110Q261 116 251 144T244 215T264 311T302 418T349 526T396 622Q419 671 350 702Q317 716 282 727T209 745Q169 753 149 749T117 722Q77 645 39 558T-22 386T-43 227T0 102Z" />
<glyph unicode="v" glyph-name="v" horiz-adv-x="1025" d="M968 647Q979 665 977 678T961 702T927 722T880 740Q855 749 831 756T786 764T749 761T724 742Q646 616 563 479T387 209Q374 276 363 341T343 467T325 578T310 670Q301 721 218 739Q183 747 153 750T84
754Q65 754 54 752T38 746T31 734T29 716Q42 549 67 399T132 119Q136 107 144 94T167 68T200 43T246 22Q294 6 338 -4T433 -24Q485 -34 512 -28T561 4Q592 45 629 98T707 211T787 333T862 453T924 561T968 647Z" />
<glyph unicode="w" glyph-name="w" horiz-adv-x="1410" d="M260 254Q264 308 271 366T285 478T299 573T308 636Q311 647 311 659T305 682T290 704T260 721Q227 733 190 739T106 752Q66 757 51 750T31 719Q24 674 19 619T10 505T4 386T2 267Q2 210 5 159T13 67Q15
39 28 26T77 4Q115 -4 156 -11T242 -24Q275 -28 295 -25T334 0Q352 25 379 62T439 143T507 231T576 318Q576 286 580 251T590 183T602 120T612 70Q617 49 634 32T693 4Q714 1 730 -2T763 -9T799 -15T845 -22Q893 -28 918 -23T957 2Q981 43 1012 95T1079 204T1153
322T1228 438T1300 546T1364 635Q1378 655 1376 675T1342 713Q1287 738 1223 755Q1202 760 1188 762T1164 763T1144 755T1126 736Q1106 709 1070 657T988 539T895 401T805 262Q809 315 814 369T823 471T831 553T834 602Q834 614 833 623T828 638T813 649T783 659Q766
663 752 666T723 673T694 678T660 684Q622 689 604 684T570 662Q549 641 513 596T433 493T345 372T260 254Z" />
<glyph unicode="x" glyph-name="x" horiz-adv-x="1038" d="M442 545Q414 587 389 625T343 695Q325 717 302 731T233 748Q212 749 191 749T152 750H114Q104 750 94 750Q85 750 77 749Q39 746 31 737T35 703Q51 678 73 644T121 571T177 488T238 400Q187 360 140
320T50 243T-29 173T-92 113Q-114 92 -114 77Q-114 68 -101 55T-67 29T-24 3T18 -17Q75 -43 112 -12Q163 30 228 86T372 206Q418 140 452 95T504 32Q516 20 527 12T550 -2T577 -11T612 -16Q693 -20 766 -16Q799 -13 805 -4T794 25Q748 91 692 174T574 348Q674 426
762 494T917 614Q939 631 944 649T924 689Q904 706 875 726T814 760Q783 771 757 771Q731 771 706 754Q655 718 589 665T442 545Z" />
<glyph unicode="y" glyph-name="y" horiz-adv-x="955" d="M889 644Q907 669 905 683T878 714Q857 726 827 740T766 763T711 771T675 751Q611 679 544 606T405 460Q370 532 338 595T277 706Q268 718 260 727T242 742T219 753T187 760Q149 765 112 764T37 761Q2
758 -4 751T0 722Q20 678 45 625T99 514T156 400T211 288Q193 225 182 171T158 74Q153 48 163 35T205 7Q236 -2 274 -10T348 -26Q385 -32 398 -28T420 -3Q435 51 452 107T495 227Q554 284 615 345T731 462T827 565T889 644Z" />
<glyph unicode="z" glyph-name="z" horiz-adv-x="825" d="M436 601Q359 541 279 473T125 338T-8 214T-103 116Q-114 104 -114 94T-109 75T-93 58T-73 43Q-41 25 -20 13T26 -11Q38 -17 50 -21T79 -27T116 -29T167 -23Q211 -16 260 -10T359 3T460 16T557 28Q595
31 605 39T605 67Q592 100 554 138Q540 154 513 160T447 164Q389 159 337 154T231 140Q365 255 506 372T781 595Q806 614 807 630T796 665Q788 679 780 695T752 732Q738 749 719 756T662 762Q592 760 514 757T357 748T206 736T75 721Q50 716 43 710T46 685Q60 667
81 643T117 605Q142 587 171 582T235 581Q282 587 330 591T436 601Z" />
<glyph unicode="{" glyph-name="braceleft" horiz-adv-x="746" d="M539 35Q531 52 521 68T493 101Q463 133 398 128Q373 127 351 126T304 124Q321 181 342 245T388 373T437 500T488 616Q535 618 577 621T658 626Q696 629 705 636T704 662Q696 680 687 695T660
728Q629 763 565 762Q512 761 450 759T330 752Q292 750 276 741T251 716Q226 659 200 590T145 445Q100 441 63 438T0 430Q-48 423 -31 391Q-19 373 -3 350T35 310Q53 298 63 293T92 287Q64 187 42 112Q35 83 44 66T81 34Q103 23 123 12T163 -8Q188 -19 215 -24T288
-23Q339 -17 392 -11T493 0Q531 0 540 8T539 35Z" />
<glyph unicode="|" glyph-name="bar" horiz-adv-x="788" d="M513 774Q478 788 444 796T374 812Q336 820 316 815T284 788Q268 750 247 689T203 554T156 401T112 250T77 118T55 24Q50 0 59 -14T101 -39Q127 -47 155 -54T218 -68Q255 -74 267 -69T288 -44Q299 -2
318 60T362 194T414 342T468 489T516 619T554 716Q566 737 559 748T513 774Z" />
<glyph unicode="}" glyph-name="braceright" horiz-adv-x="829" d="M574 631Q581 649 578 661T550 691Q532 705 515 716T480 739Q458 753 437 758T378 761Q306 758 242 754T125 744Q112 742 100 740T81 733T71 722T75 706Q86 689 96 673T125 640Q134 631 143 625T163
616T188 613T222 613Q240 614 257 615T293 618Q271 564 247 501T198 373T152 243T114 125Q80 122 46 119T-17 111T-66 101T-90 88Q-94 82 -87 70T-69 45T-44 20T-22 1Q-4 -11 15 -16T73 -18Q119 -13 168 -9T268 0Q292 0 307 3T331 10T344 21T352 34Q367 85 387
147T433 278Q471 284 512 285T584 290T629 301T629 329Q618 347 608 366T583 402Q553 436 491 436Q516 490 536 539T574 631Z" />
<glyph unicode="~" glyph-name="asciitilde" horiz-adv-x="1089" d="M719 511Q764 511 815 524T926 564Q1047 616 1047 655Q1047 675 1005 687Q971 697 933 697Q888 697 845 677Q838 673 823 664T792 646T759 630T735 624Q706 625 678 631T621 645T565 660T510
673Q465 683 424 688T341 693Q305 693 253 683T150 656T57 623T0 590Q-20 570 -20 554Q-20 514 77 514Q130 514 169 529Q172 529 187 536T221 552T262 568T301 575Q322 575 352 572T414 564T474 553T517 540Q550 525 600 518T719 511Z" />
<glyph unicode="&#xa0;" glyph-name="space" horiz-adv-x="530" />
<glyph unicode="&#xa1;" glyph-name="exclamdown" horiz-adv-x="587" d="M-15 11Q20 -3 64 -14T147 -32Q188 -40 207 -35T238 -6Q260 44 286 110T337 245T383 382T418 502Q426 528 417 542T374 567Q342 578 309 585T238 597Q205 602 190 598T167 573Q147 518 121
456T66 330T5 201T-57 75Q-69 54 -60 40T-15 11ZM497 708Q500 732 488 751T455 782T403 801T339 808Q306 808 280 801T235 782T204 759T187 737Q180 725 181 709T194 678T230 649T295 628Q340 619 376 623T439 639T480 669T497 708Z" />
<glyph unicode="&#xa2;" glyph-name="cent" horiz-adv-x="818" d="M594 258Q493 276 433 234Q349 174 304 184Q282 188 271 207T259 255T264 318T286 385Q301 416 325 450T377 514T431 560T477 575Q496 570 500 555T504 519Q504 513 505 508T508 496Q518 464 546
446T640 420Q657 418 667 418T682 422T691 429T697 439Q708 461 711 493T711 553Q707 577 694 595T640 632L614 641Q622 658 627 675T638 706Q649 742 627 768T559 812Q505 835 482 802Q467 779 451 745T416 676Q384 676 349 669T279 645Q203 606 148 544T64 415T36
283T73 173Q86 155 108 141T156 118Q154 110 153 103T152 87Q147 51 165 16T235 -36Q264 -46 279 -44T299 -23Q304 -1 313 27T334 85H339Q363 84 388 85T437 91T481 101T517 114Q547 128 575 150T623 198Q631 209 635 218T637 235T624 248T594 258Z" />
<glyph unicode="&#xa3;" glyph-name="sterling" horiz-adv-x="968" d="M110 443Q130 445 148 445T185 448Q180 430 174 412T163 376Q63 370 -22 361Q-48 358 -62 348T-62 320Q-50 306 -34 289T0 257Q18 242 39 238T95 237L121 240Q104 174 95 127Q88 103 99 86T136
54Q169 36 188 25T233 2Q243 -3 254 -7T281 -13T319 -15T374 -8Q462 4 558 16T748 41Q770 44 781 47T796 54T798 64T790 82Q783 99 772 117T741 152Q723 170 702 175T642 179Q576 176 519 172T396 161Q404 186 413 212T433 264Q553 270 675 273Q707 274 716 280T715
303Q707 317 697 331T669 361Q642 389 583 389Q558 389 533 389T482 389L508 458Q556 458 604 458Q652 458 702 457Q734 455 744 461T746 484Q739 498 730 512T706 543Q684 571 620 574Q606 575 591 575T559 577Q570 600 580 622T601 664T604 695T561 721T480 746T394
764Q356 771 336 767T301 740Q284 706 267 665T231 579Q173 577 117 575T11 569Q-15 567 -31 559T-35 531Q-27 516 -12 499T18 467Q36 450 55 446T110 443Z" />
<glyph unicode="&#xa5;" glyph-name="yen" horiz-adv-x="955" d="M125 282L211 288Q206 269 201 251T191 216Q138 213 89 209T-7 200Q-33 197 -47 187T-46 159Q-35 145 -19 128T15 96Q34 81 54 77T110 76Q121 78 134 79T161 81Q158 79 158 74Q153 48 163 35T205
7Q236 -2 274 -10T348 -26Q385 -32 398 -28T420 -3Q427 23 435 49T451 103Q511 106 570 108T691 112Q723 113 732 119T730 142Q722 156 712 170T684 200Q659 228 598 228Q573 228 547 228T495 228Q513 245 531 262T568 297Q604 297 641 297T717 296Q749 294 759
300T761 323Q754 337 745 351T722 382Q704 400 678 407Q714 443 747 477T807 542T856 599T889 644Q907 669 905 683T878 714Q857 726 827 740T766 763T711 771T675 751Q611 679 544 606T405 460Q370 532 338 595T277 706Q268 718 260 727T242 742T219 753T187 760Q149
765 112 764T37 761Q2 758 -4 751T0 722Q28 658 66 578T147 415Q114 413 85 412T26 408Q0 406 -15 398T-20 370Q-12 355 3 338T33 306Q51 289 70 285T125 282Z" />
<glyph unicode="&#xa6;" glyph-name="brokenbar" horiz-adv-x="629" d="M513 774Q478 788 444 796T374 812Q336 820 316 815T284 788Q268 746 257 719T239 671T227 635T218 602T209 562T198 504Q193 480 202 466T244 441Q270 433 298 426T361 412Q398 406 410
411T431 436Q447 471 458 494T478 537T494 572T510 607T528 653T554 716Q566 737 559 748T513 774ZM359 299Q324 313 290 321T220 337Q182 345 162 340T130 313Q114 271 104 244T87 196T76 160T69 127T61 86T51 29Q46 5 55 -9T97 -34Q123 -42 150 -49T213 -63Q251
-69 263 -64T284 -39Q300 -4 311 19T330 62T344 97T357 132T375 178T400 241Q412 262 405 273T359 299Z" />
<glyph unicode="&#xa7;" glyph-name="section" horiz-adv-x="1327" d="M-62 172Q-90 162 -90 144Q-90 128 -31 90Q82 15 192 -15T420 -43Q494 -42 550 -32T646 -6T714 29T759 67Q802 62 849 64Q937 65 1000 79T1105 113T1172 157T1210 202Q1230 230 1221 254T1182
300T1107 342T1013 383T913 426T823 472Q792 490 784 512T781 557T807 602T850 644T900 679T948 701Q972 712 983 710T996 698T994 671T983 635T970 597T961 564Q949 492 1137 450Q1170 442 1187 446T1219 469Q1232 488 1244 514T1267 567T1284 622T1294 671Q1293
683 1291 696T1282 724T1259 753T1217 783Q1177 805 1118 823T1001 853Q964 860 929 861T864 859T810 850T770 836Q723 819 679 795T594 741Q589 743 583 743T572 746Q535 753 500 754T435 752T381 743T341 729Q295 712 249 687T163 632T94 571T51 511Q31 477 31
445T44 385T87 332T152 288Q186 269 228 251T313 214T395 180T460 149T495 124T488 106Q468 95 435 94T359 99T263 123T152 163Q131 172 105 177T51 183T-7 182T-62 172ZM394 365Q348 392 327 424T305 487T322 541T372 577Q405 592 430 598T469 600Q468 589 468
571T468 534T474 498T486 471Q508 436 557 405T667 353Q718 330 770 309T862 269T918 236T917 213Q888 197 828 201T689 230Q656 246 618 262T540 294T463 328T394 365Z" />
<glyph unicode="&#xa8;" glyph-name="dieresis" horiz-adv-x="924" d="M145 905Q143 888 152 875T178 851T217 836T264 832Q289 832 308 837T342 851T365 868T376 884Q383 892 383 905Q383 923 363 940T297 966Q265 972 238 969T192 957T160 934T145 905ZM530
905Q528 888 536 874T561 850T600 835T649 831Q674 831 693 836T726 850T749 867T761 883Q763 888 764 893T766 905Q766 922 746 939T682 965Q649 971 622 968T575 956T544 934T530 905Z" />
<glyph unicode="&#xa9;" glyph-name="copyright" horiz-adv-x="1833" d="M1712 673Q1677 703 1626 730T1515 781T1388 824T1255 856T1125 877T1008 884Q901 884 794 864T586 809T395 726T232 621T108 502T33 375T17 247T73 125Q104 84 154 53T284 0Q371 -24 473
-36T684 -51T907 -46T1129 -20T1339 26T1527 90T1679 173T1786 274Q1821 323 1835 379T1842 489T1802 591T1712 673ZM1617 346Q1585 314 1547 282T1465 219T1370 163T1258 118Q1170 90 1089 71T919 45T725 43T486 73Q388 89 331 120T249 193T231 283T268 383T350
486T466 584T606 670T762 736T922 775T1078 780Q1157 772 1236 749T1385 691T1511 614T1602 526T1642 434T1617 346ZM1113 277Q1063 287 1024 281T955 254Q871 193 827 204Q806 208 795 227T783 275T788 336T810 403Q824 433 848 467T899 530T952 576T997 591Q1017
586 1021 571T1025 536Q1025 530 1026 525T1027 513Q1038 482 1067 464T1159 438Q1177 436 1187 436T1202 439T1211 446T1217 456Q1227 479 1230 511T1230 570Q1226 593 1213 611T1159 648Q1141 655 1118 662T1068 675T1014 685T959 691Q924 693 884 687T803 660Q753
634 712 598T640 520T590 433T564 344T566 262T598 193Q613 173 641 158T697 134Q729 126 769 118T860 107Q910 104 958 112T1038 134Q1067 149 1095 171T1142 219Q1159 241 1156 255T1113 277Z" />
<glyph unicode="&#xaa;" glyph-name="ordfeminine" horiz-adv-x="603" d="M440 521Q460 569 478 610T510 684Q517 697 513 704T486 720Q473 724 452 731T409 744T366 756T334 764T313 767T297 767T282 764T264 756Q227 736 182 707T91 645T5 580T-62 520Q-75 507
-75 497T-64 475Q-30 447 11 425Q29 414 45 414T81 415Q118 419 155 421T233 427Q223 399 217 378T209 342Q204 325 209 317T235 300Q255 293 276 288T315 280Q340 276 348 279T361 294Q369 324 381 360T409 437Q431 438 451 438T491 440Q512 441 518 445T519 461Q512
472 508 481T495 501Q478 521 440 521ZM97 508Q147 544 205 586T326 661Q309 627 295 591T266 517Q221 515 178 513T97 508Z" />
<glyph unicode="&#xab;" glyph-name="guillemotleft" horiz-adv-x="1373" d="M645 351Q637 329 647 321T684 304Q742 286 807 269T935 235T1056 206T1159 183Q1184 178 1202 181T1225 198Q1230 215 1229 237T1223 274Q1217 283 1213 289T1202 299T1185 306T1159
312Q1108 323 1057 335T953 362Q1047 379 1135 398T1285 435Q1305 441 1314 450T1305 473Q1280 490 1254 506T1203 534Q1190 540 1180 543T1161 547T1142 546T1120 540Q1078 528 1036 518T948 498T854 478T748 458Q732 455 722 452T703 444T690 434T678 419Q657
391 645 351ZM-13 372Q-21 350 -11 342T26 325Q85 307 149 290T277 256T399 227T502 204Q527 199 545 202T568 219Q573 236 572 258T565 295Q559 304 555 310T545 320T528 327T502 333Q450 344 399 356T295 383Q389 400 477 419T627 456Q647 462 656 471T647 494Q622
511 597 527T546 555Q532 561 522 564T503 568T484 567T462 561Q420 549 378 539T290 519T196 499T90 479Q74 476 64 473T45 465T32 455T20 440Q1 412 -13 372Z" />
<glyph unicode="&#xac;" glyph-name="logicalnot" horiz-adv-x="2088" d="M1892 173Q1954 190 1993 205Q2015 213 2034 222T2065 242T2080 264T2075 287Q2063 309 2038 324T1978 354Q1953 364 1914 369T1826 375T1725 374T1620 367T1520 355T1434 340Q1430 309
1420 273T1397 200T1372 128T1353 64Q1345 46 1355 39T1388 19Q1417 8 1440 1T1498 -13Q1514 -18 1527 -20T1553 -22T1583 -22T1621 -18Q1657 -14 1699 -7T1784 8T1864 27T1929 49Q1966 63 1983 78T1991 115Q1986 132 1958 148T1892 173ZM1107 78Q1112 58 1116
42T1124 10Q1131 -4 1141 -9T1177 -18Q1203 -23 1227 -23T1280 -24Q1307 -24 1314 -21T1322 -8Q1316 34 1310 80T1300 171T1296 254T1298 323Q1298 335 1289 341T1247 353Q1208 357 1160 362T1038 369Q994 370 971 364T933 347Q892 317 844 277T748 193T658 109T587
34Q573 13 584 7T618 -7Q636 -11 652 -14T682 -20Q708 -24 718 -23T739 -12Q756 4 772 20T814 56Q874 64 952 68T1107 78ZM1452 718Q1457 728 1452 733T1421 746Q1395 754 1365 759T1307 768Q1277 771 1263 770T1241 755Q1219 722 1199 679T1155 591Q1117 589 1077
588T992 585Q1015 623 1032 655T1067 710Q1070 721 1065 726T1034 739Q1006 747 974 752T913 762Q881 766 867 764T847 749Q832 716 816 674T783 588T747 503T708 428Q702 414 711 407T744 395Q765 389 793 386T847 379Q875 376 884 378T898 389Q911 413 922 442T953
505Q995 508 1037 510T1122 516Q1111 489 1104 467T1093 426Q1082 408 1108 400T1177 385Q1198 382 1217 380T1250 378T1272 379T1280 389Q1296 429 1318 474T1364 563T1411 647T1452 718ZM1533 738L1415 449Q1410 436 1418 427T1443 410Q1463 401 1481 396T1516
384Q1531 379 1553 377T1621 379Q1684 384 1755 390T1894 403Q1923 406 1929 409T1925 423Q1918 432 1911 440T1892 459Q1881 467 1864 470T1815 472Q1765 470 1720 469T1626 462Q1636 476 1642 489T1659 517Q1719 523 1782 527T1907 537Q1936 540 1943 543T1940
557Q1934 566 1927 574T1907 592Q1896 600 1880 603T1835 605Q1800 605 1771 604T1714 601Q1729 624 1741 644T1769 683Q1837 688 1898 690T2017 696Q2044 698 2051 701T2053 715Q2049 724 2042 731T2024 749Q2006 766 1954 766Q1898 765 1841 762T1729 756T1624
747T1533 738ZM755 703Q783 705 787 708T788 720Q777 731 765 741T735 760Q723 765 710 767T667 770Q612 769 543 767T400 761T256 754T128 746Q111 744 106 741T108 729Q119 721 133 708T169 686Q188 678 203 676T244 677Q261 679 287 680T341 684Q325 655 308
621T276 551T250 484T233 428Q228 418 233 412T250 400T280 392T319 385Q366 379 394 377T427 388Q442 424 461 463T501 542T543 621T585 696Q630 698 674 699T755 703ZM517 6Q533 7 541 8T552 12T554 17T550 26Q542 35 534 44T515 61Q497 70 483 73T440 75Q390
73 347 71T253 66Q271 97 290 131T330 198T370 261T409 317Q416 327 410 332T378 345Q352 352 319 357T253 366Q225 370 211 368T187 354Q165 324 141 283T96 199T58 117T33 49Q30 37 38 29T64 12Q89 3 103 -2T136 -14Q143 -16 151 -18T171 -22T199 -23T240 -19Q305
-13 376 -7T517 6ZM640 226Q653 232 668 242T699 263T727 287T750 309Q752 315 753 319T755 325Q755 332 739 341Q726 346 710 351T675 362Q650 369 636 368T612 357Q598 344 579 327T540 293T502 260T471 233Q455 217 499 213Q518 212 537 211T572 212Q592 212
607 215T640 226ZM1626 205Q1637 228 1648 247T1674 285Q1757 301 1814 302T1881 292Q1886 285 1871 274T1822 251T1739 226T1626 205ZM909 143Q959 185 1003 223T1087 291Q1087 258 1089 223T1098 152Q1047 150 1001 148T909 143ZM1582 130Q1667 143 1718 140T1778
126Q1782 118 1767 109T1721 90T1645 71T1542 56Q1554 75 1563 93T1582 130Z" />
<glyph unicode="&#xad;" glyph-name="hyphen" horiz-adv-x="869" d="M-123 492Q-188 484 -145 438Q-127 418 -107 399T-57 360Q-29 339 -5 333T48 332Q101 341 159 347T277 358T399 366T519 372Q554 373 562 380T557 409Q542 427 528 446T493 487Q450 524 392
524Q326 524 254 521T113 514T-17 504T-123 492Z" />
<glyph unicode="&#xae;" glyph-name="registered" horiz-adv-x="1833" d="M1712 673Q1677 703 1626 730T1515 781T1388 824T1255 856T1125 877T1008 884Q901 884 794 864T586 809T395 726T232 621T108 502T33 375T17 247T73 125Q104 84 154 53T284 0Q371 -24 473
-36T684 -51T907 -46T1129 -20T1339 26T1527 90T1679 173T1786 274Q1821 323 1835 379T1842 489T1802 591T1712 673ZM1617 346Q1585 314 1547 282T1465 219T1370 163T1258 118Q1170 90 1089 71T919 45T725 43T486 73Q388 89 331 120T249 193T231 283T268 383T350
486T466 584T606 670T762 736T922 775T1078 780Q1157 772 1236 749T1385 691T1511 614T1602 526T1642 434T1617 346ZM816 319Q843 297 875 275T942 233T1007 196T1063 167Q1101 151 1128 149T1179 152Q1199 154 1212 155T1243 168Q1257 176 1259 183T1241 202Q1213
217 1183 235T1122 274T1062 315T1008 353Q1119 385 1197 422T1307 503Q1325 529 1309 569Q1291 605 1263 630T1199 677Q1158 701 1104 706T989 706T865 684T744 653Q727 648 711 619T680 547T651 455T626 357T606 271T592 212T594 181T620 163Q640 155 662 152T711
144Q736 140 745 144T759 159Q774 199 787 238T816 319ZM926 576Q966 587 998 591T1058 596Q1084 596 1101 592T1124 579Q1131 568 1117 550T1068 510T982 469T860 433Q880 475 895 510T926 576Z" />
<glyph unicode="&#xaf;" glyph-name="overscore" horiz-adv-x="869" d="M117 974Q52 966 95 920Q104 910 108 908T117 904T129 900T150 887Q178 866 202 860T255 859Q308 868 366 874T484 885T606 893T726 899Q761 900 769 907T763 936Q756 945 755 947T752 950T747
955T733 969Q690 1006 631 1006Q565 1006 493 1003T352 996T222 986T117 974Z" />
<glyph unicode="0;" glyph-name="degree" horiz-adv-x="548" d="M392 750Q367 756 331 761T255 768Q226 770 192 767T132 756Q75 739 37 715T-21 663T-38 610T-9 563Q1 554 21 547T62 536Q88 530 120 528T183 524Q229 522 263 525T330 538Q375 554 404 576T448
623T464 670T455 714Q447 725 434 733T392 750ZM279 725Q294 723 301 714T309 692T305 663T290 635Q279 618 264 604T232 580T196 565T161 563Q143 565 135 574T125 595T129 623T145 651T172 678T208 703T245 720T279 725Z" />
<glyph unicode="1;" glyph-name="plusminus" horiz-adv-x="1074" d="M827 434Q859 434 867 440T865 464Q853 479 844 493T816 525Q786 553 728 555Q658 557 554 555Q562 575 573 593T592 629Q603 646 599 656T570 681Q548 695 513 708T444 729Q418 735 399
728T372 706Q352 676 334 635T297 546Q209 543 130 538T-7 525Q-19 523 -31 521T-50 514T-60 504T-57 489Q-46 472 -24 450T20 413Q32 405 42 401T62 395T83 393Q95 393 112 395Q145 399 180 402T253 408Q245 380 242 357T233 316Q230 283 277 266Q309 255 334
248T385 232Q416 224 427 227T444 249Q456 286 469 331T502 424Q587 429 667 430T827 434ZM823 82Q855 82 863 88T860 112Q849 127 840 141T812 173Q780 203 724 203Q625 202 558 201T441 198T349 193T260 185T152 173T4 158Q-8 157 -20 155T-39 148T-49 137T-46
122Q-35 105 -13 83T31 46Q43 38 53 34T73 28T94 26Q106 26 123 28Q194 36 244 42T330 54T394 63T448 70T505 75T578 78T680 80T823 82Z" />
<glyph unicode="2;" glyph-name="twosuperior" horiz-adv-x="521" d="M156 380Q196 399 237 422T314 470T380 519T429 565Q445 583 457 600T472 633T470 667T444 702Q430 714 407 726T355 748T290 761T216 761Q150 753 93 727T-4 660Q-27 634 -23 624T2 608Q39
600 82 600T158 616Q179 629 200 640T239 659T273 670T299 668Q310 664 299 647T259 606T190 551T102 490T3 430T-97 377Q-118 366 -113 355T-97 333Q-83 322 -62 309T-24 287Q-18 283 -13 281T2 277T24 275T57 279Q84 283 124 287T208 295T295 302T372 306Q392
308 397 312T396 327Q391 336 381 348T359 369Q347 380 333 384T299 388Q271 387 232 386T156 380Z" />
<glyph unicode="3;" glyph-name="threesuperior" horiz-adv-x="532" d="M284 527Q324 538 356 550T411 576Q430 587 442 603T456 638T445 678T403 721Q374 740 346 750T292 763T241 766T196 762Q138 754 89 734T11 692Q-10 675 18 660Q32 653 53 648T96 642T140
642T178 652Q201 660 227 668T273 677Q285 677 293 671Q303 664 293 652T250 626T163 594T26 561Q8 557 6 550T13 531Q39 505 76 492T154 482Q186 484 204 483T240 473Q248 468 253 460T257 442T248 421T224 397Q189 374 142 371T20 393Q-6 401 -39 403T-101 394Q-109
391 -113 387T-117 378T-107 365T-79 347Q-19 312 42 299T161 286Q233 286 293 300T398 353Q438 387 433 428T361 504Q344 513 325 518T284 527Z" />
<glyph unicode="4;" glyph-name="acute" horiz-adv-x="869" d="M781 972Q776 993 766 1006T730 1027Q685 1041 657 1041T607 1032Q568 1014 521 997T424 964T321 933T218 905Q195 897 193 889T196 873T210 862T218 859Q256 846 286 842T343 845Q403 857 466
873T587 907T695 941T781 972Z" />
<glyph unicode="5;" glyph-name="mu" horiz-adv-x="1118" d="M460 -16Q526 -19 577 -13T680 11Q751 39 804 98T900 240T976 429T1041 656Q1044 666 1044 674T1041 688T1026 700T997 713Q961 725 919 737T841 756T779 757T750 730Q737 680 718 613T675 474T623
335T562 214T493 133T418 110Q393 115 382 133T369 180T374 245T394 323Q404 357 422 401T459 488T495 567T521 622Q545 670 475 702Q442 716 407 727T334 745Q295 753 274 749T242 722Q193 632 146 518T59 283T-12 46T-57 -167Q-62 -193 -52 -207T-9 -233Q23 -244
57 -251T130 -265Q149 -268 161 -268T180 -267T192 -259T200 -244Q215 -192 235 -127T279 10Q317 -1 361 -7T460 -16Z" />
<glyph unicode="6;" glyph-name="paragraph" horiz-adv-x="1038" d="M178 153Q168 99 158 47T130 -56Q130 -72 140 -77T191 -77Q232 -70 272 -64T344 -47T398 -20T425 22Q425 28 439 65T475 156T523 272T572 391T613 491T636 550Q668 557 687 547T713 517Q710
499 694 453T655 348T606 221T556 95T514 -10T491 -72Q491 -88 501 -93T552 -93Q593 -86 633 -80T705 -63T758 -36T783 6Q785 24 794 58T818 135T850 229T885 330T918 426T943 509T955 569T950 595Q888 619 807 643T638 679T463 688T301 651Q238 622 179 587T66
501Q39 475 29 453T22 410T37 370T66 333Q88 309 121 287T200 243Q189 229 186 208T178 153Z" />
<glyph unicode="7;" glyph-name="middot" horiz-adv-x="486" d="M84 426Q81 403 93 385T126 353T178 334T242 328Q275 328 301 335T346 353T376 376T392 397Q398 410 398 426Q398 449 371 472T286 507Q242 515 206 511T144 495T102 465T84 426Z" />
<glyph unicode="8;" glyph-name="cedilla" horiz-adv-x="442" d="M123 -180Q141 -167 163 -147T206 -104T246 -58T275 -14Q286 13 286 19Q286 30 262 51Q244 62 222 73T172 94Q110 119 88 84Q71 58 46 24T-6 -45T-58 -112T-101 -166Q-128 -197 -64 -205Q-38
-207 -13 -208T37 -208Q88 -206 123 -180Z" />
<glyph unicode="9;" glyph-name="onesuperior" horiz-adv-x="332" d="M295 687Q302 700 296 706T268 722Q257 726 241 731T209 741T177 749T150 755Q127 759 116 757T90 743Q75 730 56 713T24 679Q13 665 20 659T59 642Q46 608 33 567T10 486T-8 412T-18 356Q-21
339 -16 331T4 315Q15 312 30 308T61 301T92 295T119 290Q140 286 147 288T158 302Q168 341 184 393T220 499T258 602T295 687Z" />
<glyph unicode="a;" glyph-name="ordmasculine" horiz-adv-x="1764" d="M568 314Q552 359 537 407T507 500T482 582T464 643Q456 673 440 688T383 714Q335 728 290 737T198 754Q160 760 137 754T101 725Q83 683 64 627T26 509T-12 383T-45 262T-71 160T-86
88Q-93 62 -84 48T-42 22Q-10 8 26 2T97 -11Q135 -18 148 -14T167 8Q176 44 190 91T221 191T256 301T293 415Q310 368 329 321T369 230T410 146T451 77Q478 33 541 17Q576 9 610 3T680 -9Q758 -21 766 17Q785 86 810 171T862 344T916 512T968 655Q972 665 973 674T970
690T956 705T926 719Q903 728 886 733T854 742T823 748T788 754Q748 760 727 755T697 727Q664 642 629 536T568 314ZM1505 584Q1480 590 1444 595T1368 602Q1339 604 1305 601T1245 590Q1188 573 1150 549T1092 497T1075 444T1104 397Q1115 388 1135 381T1175 370Q1201
364 1233 362T1296 358Q1342 356 1376 359T1443 372Q1488 388 1517 410T1561 457T1577 504T1569 548Q1561 559 1547 567T1505 584ZM964 268Q899 260 942 214Q951 204 952 201T954 196T959 191T977 178Q1005 157 1044 151T1111 150Q1164 159 1222 165T1340 176T1462
184T1582 190Q1617 191 1625 198T1619 227Q1611 236 1608 238T1603 243T1595 248T1580 263Q1537 300 1478 300Q1412 300 1340 297T1199 290T1069 280T964 268ZM1384 540Q1394 539 1399 532T1405 516T1403 495T1393 475Q1385 463 1374 453T1350 436T1325 426T1300
424Q1288 425 1282 432T1274 448T1277 467T1289 487Q1296 496 1308 506T1333 523T1359 536T1384 540Z" />
<glyph unicode="b;" glyph-name="guillemotright" horiz-adv-x="1373" d="M1316 376Q1324 398 1313 406T1276 423Q1217 441 1153 458T1025 492T904 521T801 544Q776 549 758 546T735 529Q730 512 731 490T737 453Q743 444 747 438T758 428T774 421T801 415Q852
404 903 392T1008 365Q913 348 825 329T675 292Q655 286 646 277T656 254Q681 237 706 221T757 193Q770 187 780 184T799 180T818 181T840 187Q882 199 924 209T1012 229T1107 249T1212 269Q1243 276 1257 283T1283 308Q1302 336 1316 376ZM658 397Q666 419 655
427T618 444Q559 462 495 479T367 513T246 542T143 565Q118 570 100 567T77 550Q72 533 73 511T79 474Q85 465 89 459T100 449T116 442T143 436Q194 425 245 413T350 386Q255 369 167 350T18 313Q-2 307 -11 298T-2 275Q23 258 48 242T99 214Q125 202 141 201T183
208Q225 220 267 230T355 250T449 270T554 290Q585 297 599 304T625 329Q644 357 658 397Z" />
<glyph unicode="c;" glyph-name="onequarter" horiz-adv-x="1179" d="M1016 211Q1036 259 1054 300T1087 374Q1094 387 1089 394T1063 410Q1049 414 1028 421T985 434T943 446T911 454T890 457T874 457T858 454T840 446Q803 426 758 397T667 335T582 270T515
210Q501 197 501 187T513 165Q530 151 548 139T587 115Q606 104 622 104T658 105Q694 109 732 111T810 117Q790 63 785 32Q780 15 786 7T812 -10Q832 -17 853 -22T891 -30Q916 -34 924 -31T937 -16Q945 14 958 50T986 127Q1028 128 1067 130Q1089 131 1095 135T1096
151Q1089 162 1084 171T1071 191Q1054 211 1016 211ZM1052 696Q1043 705 1040 707T1034 709Q1032 709 1028 710T1012 719Q967 751 909 721Q868 701 812 670T691 600T554 518T410 429T269 341T140 259T32 189T-46 138Q-77 118 -84 102Q-86 94 -84 86T-70 70Q-63
64 -63 65T-62 69T-58 71Q-56 71 -44 64Q-21 50 -2 50T42 68Q94 100 173 147T345 248T537 359T729 468T900 565T1030 636Q1058 651 1065 663T1052 696ZM246 694Q253 707 248 713T220 729Q208 733 193 738T161 748T129 756T101 762Q78 766 68 764T42 750Q27 737
7 720T-24 686Q-36 672 -29 666T11 649Q-2 615 -15 574T-38 493T-56 419T-66 363Q-69 346 -64 338T-44 322Q-33 319 -18 315T12 308T43 302T70 297Q92 293 99 295T110 309Q120 348 136 400T171 506T209 609T246 694ZM673 198Q723 234 782 276T902 351Q885 317 871
281T843 207Q798 205 755 203T673 198Z" />
<glyph unicode="d;" glyph-name="onehalf" horiz-adv-x="1239" d="M1052 696Q1043 705 1040 707T1034 709Q1032 709 1028 710T1012 719Q967 751 909 721Q868 701 812 670T691 600T554 518T410 429T269 341T140 259T32 189T-46 138Q-77 118 -84 102Q-86 94
-84 86T-70 70Q-63 64 -63 65T-62 69T-58 71Q-56 71 -44 64Q-21 50 -2 50T42 68Q94 100 173 147T345 248T537 359T729 468T900 565T1030 636Q1058 651 1065 663T1052 696ZM847 78Q887 97 928 120T1005 168T1071 217T1120 263Q1136 281 1148 298T1163 331T1161 365T1135
400Q1121 412 1098 424T1046 446T981 459T906 459Q840 451 783 425T686 358Q675 345 671 337T667 322T675 313T693 306Q729 298 772 298T849 314Q870 327 891 338T930 357T964 368T990 366Q1001 362 990 345T950 304T881 249T793 188T694 128T594 75Q583 69 580
64T577 53T583 42T594 31Q608 20 629 7T667 -15Q673 -19 678 -21T693 -25T715 -27T748 -23Q774 -19 814 -15T898 -7T986 0T1063 4Q1083 6 1088 10T1087 25Q1082 34 1072 46T1049 67Q1027 87 990 86Q962 85 923 84T847 78ZM246 694Q253 707 248 713T220 729Q208
733 193 738T161 748T129 756T101 762Q78 766 68 764T42 750Q27 737 7 720T-24 686Q-36 672 -29 666T11 649Q-2 615 -15 574T-38 493T-56 419T-66 363Q-69 346 -64 338T-44 322Q-33 319 -18 315T12 308T43 302T70 297Q92 293 99 295T110 309Q120 348 136 400T171
506T209 609T246 694Z" />
<glyph unicode="e;" glyph-name="threequarters" horiz-adv-x="1390" d="M1228 211Q1248 259 1265 300T1298 374Q1305 387 1300 394T1274 410Q1261 414 1240 421T1197 434T1154 446T1122 454T1101 457T1085 457T1070 454T1052 446Q1015 426 969 397T878 335T793
270T726 210Q712 197 713 187T724 165Q741 151 760 139T799 115Q817 104 833 104T869 105Q905 109 943 111T1021 117Q1011 89 1005 68T997 32Q992 15 997 7T1023 -10Q1043 -17 1064 -22T1102 -30Q1127 -34 1135 -31T1148 -16Q1156 14 1169 50T1197 127Q1239 128
1278 130Q1300 131 1306 135T1307 151Q1300 162 1296 171T1283 191Q1266 211 1228 211ZM1263 696Q1254 705 1251 707T1245 709Q1243 709 1239 710T1223 719Q1178 751 1120 721Q1079 701 1023 670T902 600T765 518T621 429T480 341T351 259T243 189T165 138Q134
118 128 102Q126 94 127 86T141 70Q148 64 149 65T150 69Q150 71 152 71Q155 71 167 64Q190 50 209 50T253 68Q305 100 384 147T556 248T748 359T940 468T1111 565T1241 636Q1269 651 1276 663T1263 696ZM315 558Q354 569 386 581T442 607Q461 618 473 634T487
669T476 709T433 752Q404 771 376 781T322 794T272 797T227 793Q169 785 120 765T42 723Q30 714 32 707T48 691Q62 684 83 679T127 673T171 673T209 683Q232 691 258 699T304 708Q317 708 323 702Q333 695 323 683T281 657T194 625T57 592Q39 588 37 581T44 562Q70
536 107 523T185 513Q217 515 235 514T271 504Q279 499 284 491T288 473T279 452T255 428Q220 405 173 402T51 424Q24 432 -9 434T-70 425Q-78 422 -82 418T-86 409T-76 396T-48 378Q12 343 73 330T191 317Q264 317 324 331T429 384Q469 418 464 459T392 535Q375
544 356 549T315 558ZM884 198Q934 234 993 276T1113 351Q1096 317 1083 281T1054 207Q1009 205 966 203T884 198Z" />
<glyph unicode="f;" glyph-name="questiondown" horiz-adv-x="997" d="M680 546Q651 555 616 564T551 577T501 577T484 554Q475 515 451 488T394 439T320 401T240 369T163 338T97 300Q68 279 46 252T21 191T37 122T112 46Q137 27 174 10T259 -19T361 -35T475
-32Q575 -21 661 17T816 115Q839 134 848 148T855 171T842 186T814 196Q781 205 747 208T679 211T615 203T561 184Q529 168 498 152T437 124T378 103T319 95Q299 95 281 102T257 125Q255 137 261 151T286 182T337 216T420 253Q460 269 509 289T604 337T682 401T722
484Q727 508 720 521T680 546ZM805 679Q809 701 799 718T769 748T721 768T660 779Q587 786 540 768T482 721Q480 718 480 709V694Q480 682 484 671T501 649T536 629T594 612Q639 603 677 605T742 618T786 644T805 679Z" />
<glyph unicode="0;" glyph-name="Agrave" horiz-adv-x="1054" d="M605 186Q615 109 629 50Q636 22 650 11T700 -7Q735 -15 767 -16T838 -18Q876 -18 886 -11T895 14Q886 98 879 190T866 372T860 540T860 677Q861 700 849 714T796 737Q767 742 738 747T675
756T601 764T508 770Q449 773 418 760T367 726Q330 686 289 636T204 531T117 417T33 303T-42 194T-103 97Q-114 76 -114 64T-109 43T-89 30T-59 16Q-38 8 -15 2T26 -10Q59 -18 75 -15T106 5Q127 37 150 70T205 142Q245 149 292 155T392 166T498 176T605 186ZM288
977Q324 963 374 946T482 912T603 879T726 850Q752 843 782 847T851 864Q850 863 858 867T873 878T876 893T851 910Q801 923 749 938T646 969T549 1002T462 1037Q440 1047 412 1047T339 1032Q314 1025 304 1012T288 977ZM334 316Q399 401 461 476T574 612Q574 546
578 476T587 334Q460 328 334 316Z" />
<glyph unicode="1;" glyph-name="Aacute" horiz-adv-x="1054" d="M605 186Q615 109 629 50Q636 22 650 11T700 -7Q735 -15 767 -16T838 -18Q876 -18 886 -11T895 14Q886 98 879 190T866 372T860 540T860 677Q861 700 849 714T796 737Q767 742 738 747T675
756T601 764T508 770Q449 773 418 760T367 726Q330 686 289 636T204 531T117 417T33 303T-42 194T-103 97Q-114 76 -114 64T-109 43T-89 30T-59 16Q-38 8 -15 2T26 -10Q59 -18 75 -15T106 5Q127 37 150 70T205 142Q245 149 292 155T392 166T498 176T605 186ZM911
972Q906 993 896 1006T860 1027Q815 1041 787 1041T737 1032Q697 1014 650 997T553 964T451 933T348 905Q325 897 323 889T326 873T340 862T348 859Q386 846 416 842T473 845Q533 857 596 873T717 907T825 941T911 972ZM334 316Q399 401 461 476T574 612Q574 546
578 476T587 334Q460 328 334 316Z" />
<glyph unicode="2;" glyph-name="Acircumflex" horiz-adv-x="1054" d="M605 186Q615 109 629 50Q636 22 650 11T700 -7Q735 -15 767 -16T838 -18Q876 -18 886 -11T895 14Q886 98 879 190T866 372T860 540T860 677Q861 700 849 714T796 737Q767 742 738 747T675
756T601 764T508 770Q449 773 418 760T367 726Q330 686 289 636T204 531T117 417T33 303T-42 194T-103 97Q-114 76 -114 64T-109 43T-89 30T-59 16Q-38 8 -15 2T26 -10Q59 -18 75 -15T106 5Q127 37 150 70T205 142Q245 149 292 155T392 166T498 176T605 186ZM845
834Q866 833 872 837T873 853Q864 872 853 896T830 947T808 1001T790 1054Q786 1070 780 1077T759 1093Q744 1101 727 1107T693 1121Q676 1127 662 1127T631 1115Q596 1095 562 1072T495 1026T437 981T392 943Q370 926 394 907Q407 896 419 888T444 872Q460 863
471 863Q482 863 493 872Q528 898 569 927T658 988Q675 952 688 920T715 866Q732 845 768 840Q789 836 808 835T845 834ZM334 316Q399 401 461 476T574 612Q574 546 578 476T587 334Q460 328 334 316Z" />
<glyph unicode="3;" glyph-name="Atilde" horiz-adv-x="1054" d="M605 186Q615 109 629 50Q636 22 650 11T700 -7Q735 -15 767 -16T838 -18Q876 -18 886 -11T895 14Q886 98 879 190T866 372T860 540T860 677Q861 700 849 714T796 737Q767 742 738 747T675
756T601 764T508 770Q449 773 418 760T367 726Q330 686 289 636T204 531T117 417T33 303T-42 194T-103 97Q-114 76 -114 64T-109 43T-89 30T-59 16Q-38 8 -15 2T26 -10Q59 -18 75 -15T106 5Q127 37 150 70T205 142Q245 149 292 155T392 166T498 176T605 186ZM739
852Q806 852 887 889Q932 908 952 924T972 954Q972 967 944 977Q919 984 891 984Q860 984 829 970Q824 967 814 961T791 948T768 937T750 932Q708 934 668 947T592 967Q559 974 530 977T471 981Q445 981 408 974T334 955T267 931T227 908Q213 894 213 882Q213 868
231 861T282 854Q322 854 348 864Q350 864 360 869T385 880T414 892T442 897Q457 897 479 895T523 890T565 882T596 872Q619 861 655 857T739 852ZM334 316Q399 401 461 476T574 612Q574 546 578 476T587 334Q460 328 334 316Z" />
<glyph unicode="4;" glyph-name="Adieresis" horiz-adv-x="1054" d="M605 186Q615 109 629 50Q636 22 650 11T700 -7Q735 -15 767 -16T838 -18Q876 -18 886 -11T895 14Q886 98 879 190T866 372T860 540T860 677Q861 700 849 714T796 737Q767 742 738 747T675
756T601 764T508 770Q449 773 418 760T367 726Q330 686 289 636T204 531T117 417T33 303T-42 194T-103 97Q-114 76 -114 64T-109 43T-89 30T-59 16Q-38 8 -15 2T26 -10Q59 -18 75 -15T106 5Q127 37 150 70T205 142Q245 149 292 155T392 166T498 176T605 186ZM334
316Q399 401 461 476T574 612Q574 546 578 476T587 334Q460 328 334 316ZM304 910Q302 893 311 880T336 856T375 841T422 837Q447 837 466 842T500 856T523 873T535 889Q541 898 541 910Q541 928 521 945T455 971Q423 977 397 974T350 962T318 939T304 910ZM689
910Q686 893 694 879T719 855T758 840T807 836Q832 836 851 841T885 855T908 872T920 888Q922 893 923 898T924 910Q924 927 904 944T840 970Q807 976 780 973T733 961T702 939T689 910Z" />
<glyph unicode="5;" glyph-name="Aring" horiz-adv-x="1054" d="M605 186Q615 109 629 50Q636 22 650 11T700 -7Q735 -15 767 -16T838 -18Q876 -18 886 -11T895 14Q886 98 879 190T866 372T860 540T860 677Q861 700 849 714T796 737Q767 742 738 747T675 756T601
764T508 770Q449 773 418 760T367 726Q330 686 289 636T204 531T117 417T33 303T-42 194T-103 97Q-114 76 -114 64T-109 43T-89 30T-59 16Q-38 8 -15 2T26 -10Q59 -18 75 -15T106 5Q127 37 150 70T205 142Q245 149 292 155T392 166T498 176T605 186ZM832 1036Q807
1042 771 1047T695 1054Q666 1056 632 1053T572 1042Q515 1025 477 1001T419 949T402 896T431 849Q441 840 461 833T502 822Q528 816 560 814T623 810Q669 808 703 811T770 824Q815 840 844 862T888 909T904 956T895 1000Q887 1011 874 1019T832 1036ZM334 316Q399
401 461 476T574 612Q574 546 578 476T587 334Q460 328 334 316ZM719 1011Q734 1009 741 1000T749 978T745 949T730 921Q719 904 704 890T672 866T636 851T601 849Q583 851 575 860T565 881T569 909T585 937T612 964T648 989T685 1006T719 1011Z" />
<glyph unicode="6;" glyph-name="AE" horiz-adv-x="1549" d="M1036 738Q1009 743 982 748T922 757T849 765T757 771Q700 774 665 761T603 727Q553 687 495 637T374 532T249 418T127 304T16 195T-77 98Q-95 77 -100 65T-101 44T-86 31T-62 17Q-42 9 -21 3T15
-9Q48 -17 65 -14T101 6Q133 38 166 71T244 143Q286 150 336 156T439 167T548 176T656 186Q648 154 641 133T629 97T620 72T616 50Q613 22 635 12T693 -6Q703 -10 733 -11T799 -13Q835 -13 867 -12T915 -9Q1003 2 1099 15T1289 40Q1327 45 1334 52T1333 80Q1322
98 1312 115T1283 151Q1268 168 1245 174T1184 178Q1112 175 1052 171T926 158Q926 162 927 165T928 172Q939 195 948 218T968 268Q1049 279 1135 288T1307 308Q1345 313 1353 320T1351 348Q1343 366 1333 383T1305 418Q1290 435 1268 440T1208 445Q1163 444 1123
443T1041 437Q1062 482 1079 523T1115 601Q1209 609 1292 615T1454 626Q1492 629 1502 636T1505 665Q1497 683 1489 698T1463 732Q1441 767 1368 766Q1271 764 1194 756T1045 736Q1043 737 1040 737Q1038 737 1036 738ZM431 317Q524 402 611 477T772 613Q751 547
731 477T693 335Q627 332 563 328T431 317Z" />
<glyph unicode="7;" glyph-name="Ccedilla" horiz-adv-x="942" d="M213 -203Q231 -190 253 -170T297 -127T336 -81T365 -37Q365 -35 366 -33T367 -28Q429 -28 486 -17T581 11Q621 31 660 61T724 126Q734 141 739 153T742 176T725 193T684 206Q549 231 466
174Q352 92 293 106Q263 112 248 138T231 202T238 287T268 378Q288 420 321 467T391 553T464 616T526 635Q552 629 557 608T563 560Q563 546 568 528Q574 507 586 491T620 462T673 441T748 426Q771 423 784 424T805 428T817 438T825 451Q832 466 836 485T843 525T845
567Q845 588 843 606Q838 638 819 663T748 713Q722 723 690 733T621 751T547 764T473 772Q425 774 370 766T260 730Q191 694 135 645T36 538T-32 419T-67 298T-64 185T-20 91Q-10 77 5 65T38 43T75 24T114 10Q119 8 125 7T139 4Q120 -21 99 -48T58 -100T20 -149T-11
-189Q-38 -220 26 -228Q53 -230 78 -231T128 -231Q178 -229 213 -203Z" />
<glyph unicode="8;" glyph-name="Egrave" horiz-adv-x="847" d="M99 710L-68 132Q-73 106 -61 87T-24 54Q4 36 26 25T73 2Q83 -3 95 -7T124 -13T161 -15T213 -9Q301 2 397 15T587 40Q625 45 632 52T631 80Q620 98 610 115T581 151Q566 168 543 174T482 178Q411
175 350 171T222 158Q234 184 244 211T266 268Q347 279 433 288T605 308Q643 313 651 320T649 348Q641 366 631 383T603 418Q588 435 566 440T506 445Q461 444 421 443T339 437Q360 482 377 523T414 601Q507 609 590 615T752 626Q790 629 800 636T803 665Q795 683
787 698T761 732Q739 767 667 766Q590 764 513 759T363 745T222 728T99 710ZM191 972Q227 958 277 941T385 907T506 874T629 845Q655 838 686 842T755 859Q754 858 762 862T776 873T780 888T755 905Q704 918 652 933T550 964T452 997T365 1032Q344 1042 316 1042T242
1027Q217 1020 207 1007T191 972Z" />
<glyph unicode="9;" glyph-name="Eacute" horiz-adv-x="847" d="M99 710L-68 132Q-73 106 -61 87T-24 54Q4 36 26 25T73 2Q83 -3 95 -7T124 -13T161 -15T213 -9Q301 2 397 15T587 40Q625 45 632 52T631 80Q620 98 610 115T581 151Q566 168 543 174T482 178Q411
175 350 171T222 158Q234 184 244 211T266 268Q347 279 433 288T605 308Q643 313 651 320T649 348Q641 366 631 383T603 418Q588 435 566 440T506 445Q461 444 421 443T339 437Q360 482 377 523T414 601Q507 609 590 615T752 626Q790 629 800 636T803 665Q795 683
787 698T761 732Q739 767 667 766Q590 764 513 759T363 745T222 728T99 710ZM781 972Q776 993 766 1006T730 1027Q685 1041 657 1041T607 1032Q568 1014 521 997T424 964T321 933T218 905Q195 897 193 889T196 873T210 862T218 859Q256 846 286 842T343 845Q403
857 466 873T587 907T695 941T781 972Z" />
<glyph unicode="a;" glyph-name="Ecircumflex" horiz-adv-x="847" d="M99 710L-68 132Q-73 106 -61 87T-24 54Q4 36 26 25T73 2Q83 -3 95 -7T124 -13T161 -15T213 -9Q301 2 397 15T587 40Q625 45 632 52T631 80Q620 98 610 115T581 151Q566 168 543 174T482
178Q411 175 350 171T222 158Q234 184 244 211T266 268Q347 279 433 288T605 308Q643 313 651 320T649 348Q641 366 631 383T603 418Q588 435 566 440T506 445Q461 444 421 443T339 437Q360 482 377 523T414 601Q507 609 590 615T752 626Q790 629 800 636T803 665Q795
683 787 698T761 732Q739 767 667 766Q590 764 513 759T363 745T222 728T99 710ZM724 831Q745 830 751 834T752 850Q743 869 732 893T709 944T687 998T669 1051Q665 1067 659 1074T638 1090Q623 1098 606 1104T572 1118Q555 1124 541 1124T510 1112Q475 1092 441
1069T374 1023T316 978T271 940Q249 923 273 904Q286 893 298 885T323 869Q339 860 350 860Q361 860 372 869Q407 895 448 924T537 985Q554 949 567 917T594 863Q611 842 647 837Q668 833 687 832T724 831Z" />
<glyph unicode="b;" glyph-name="Edieresis" horiz-adv-x="847" d="M99 710L-68 132Q-73 106 -61 87T-24 54Q4 36 26 25T73 2Q83 -3 95 -7T124 -13T161 -15T213 -9Q301 2 397 15T587 40Q625 45 632 52T631 80Q620 98 610 115T581 151Q566 168 543 174T482
178Q411 175 350 171T222 158Q234 184 244 211T266 268Q347 279 433 288T605 308Q643 313 651 320T649 348Q641 366 631 383T603 418Q588 435 566 440T506 445Q461 444 421 443T339 437Q360 482 377 523T414 601Q507 609 590 615T752 626Q790 629 800 636T803 665Q795
683 787 698T761 732Q739 767 667 766Q590 764 513 759T363 745T222 728T99 710ZM145 905Q143 888 152 875T178 851T217 836T264 832Q289 832 308 837T342 851T365 868T376 884Q383 892 383 905Q383 923 363 940T297 966Q265 972 238 969T192 957T160 934T145 905ZM530
905Q528 888 536 874T561 850T600 835T649 831Q674 831 693 836T726 850T749 867T761 883Q763 888 764 893T766 905Q766 922 746 939T682 965Q649 971 622 968T575 956T544 934T530 905Z" />
<glyph unicode="c;" glyph-name="Igrave" horiz-adv-x="458" d="M352 707Q317 721 271 733T185 752Q145 759 126 754T95 727Q79 690 61 637T24 524T-13 400T-46 277T-72 168T-88 83Q-93 57 -83 43T-40 17Q-8 6 26 -1T99 -15Q137 -21 150 -16T169 6Q182 50
199 104T235 218T276 338T318 455T359 562T396 649Q400 659 401 667T398 681T382 694T352 707ZM-64 993Q-28 979 22 962T130 928T251 895T374 866Q400 859 430 863T499 880Q498 879 506 883T521 894T524 909T499 926Q449 939 397 954T294 985T197 1018T110 1053Q88
1063 60 1063T-13 1048Q-38 1041 -48 1028T-64 993Z" />
<glyph unicode="d;" glyph-name="Iacute" horiz-adv-x="458" d="M352 707Q317 721 271 733T185 752Q145 759 126 754T95 727Q79 690 61 637T24 524T-13 400T-46 277T-72 168T-88 83Q-93 57 -83 43T-40 17Q-8 6 26 -1T99 -15Q137 -21 150 -16T169 6Q182 50
199 104T235 218T276 338T318 455T359 562T396 649Q400 659 401 667T398 681T382 694T352 707ZM620 974Q615 995 605 1008T570 1029Q525 1043 497 1043T447 1034Q407 1016 360 999T263 966T160 935T57 907Q35 899 33 891T35 875T49 864T57 861Q95 848 125 844T183
847Q243 859 305 875T426 909T534 943T620 974Z" />
<glyph unicode="e;" glyph-name="Icircumflex" horiz-adv-x="458" d="M352 707Q317 721 271 733T185 752Q145 759 126 754T95 727Q79 690 61 637T24 524T-13 400T-46 277T-72 168T-88 83Q-93 57 -83 43T-40 17Q-8 6 26 -1T99 -15Q137 -21 150 -16T169 6Q182
50 199 104T235 218T276 338T318 455T359 562T396 649Q400 659 401 667T398 681T382 694T352 707ZM510 826Q532 825 538 829T539 845Q530 864 519 888T496 939T473 993T455 1046Q452 1062 445 1069T425 1085Q410 1093 393 1099T359 1113Q342 1119 328 1119T297
1107Q262 1087 228 1064T161 1018T102 973T57 935Q37 918 59 899Q73 888 84 880T110 864Q126 855 136 855Q149 855 158 864Q193 890 234 919T323 980Q340 944 353 912T381 858Q398 836 433 832Q455 828 473 827T510 826Z" />
<glyph unicode="f;" glyph-name="Idieresis" horiz-adv-x="458" d="M352 707Q317 721 271 733T185 752Q145 759 126 754T95 727Q79 690 61 637T24 524T-13 400T-46 277T-72 168T-88 83Q-93 57 -83 43T-40 17Q-8 6 26 -1T99 -15Q137 -21 150 -16T169 6Q182
50 199 104T235 218T276 338T318 455T359 562T396 649Q400 659 401 667T398 681T382 694T352 707ZM-42 905Q-44 888 -35 875T-9 851T30 836T77 832Q102 832 121 837T155 851T178 868T189 884Q196 892 196 905Q196 923 176 940T110 966Q78 972 51 969T5 957T-27
934T-42 905ZM343 905Q341 888 349 874T374 850T413 835T462 831Q487 831 506 836T539 850T562 867T574 883Q576 888 577 893T579 905Q579 922 559 939T495 965Q462 971 435 968T388 956T357 934T343 905Z" />
<glyph unicode="&#xd0;" glyph-name="Eth" horiz-adv-x="1322" d="M59 462Q-45 456 -2 417Q27 386 90 352Q123 335 156 330T238 329L198 155Q191 131 193 116T203 89T224 70T251 52Q288 32 318 19T389 -9Q469 -38 546 -18Q692 10 803 55T993 155T1118 271T1181
392T1185 509T1129 611Q1083 664 1019 696T882 744T730 762T578 758T437 737T321 706L268 473Q218 471 169 469T59 462ZM473 138Q490 192 506 244T541 347Q576 348 619 348T722 351Q773 352 791 358T796 382Q785 396 775 412T739 447Q704 478 607 478H590Q601 508
614 537T640 596Q725 613 784 600T869 558Q880 544 886 524T891 478Q888 440 865 394T791 302T663 213T473 138Z" />
<glyph unicode="&#xd1;" glyph-name="Ntilde" horiz-adv-x="1030" d="M568 314Q552 359 537 407T507 500T482 582T464 643Q456 673 440 688T383 714Q335 728 290 737T198 754Q160 760 137 754T101 725Q83 683 64 627T26 509T-12 383T-45 262T-71 160T-86 88Q-93
62 -84 48T-42 22Q-10 8 26 2T97 -11Q135 -18 148 -14T167 8Q176 44 190 91T221 191T256 301T293 415Q310 368 329 321T369 230T410 146T451 77Q478 33 541 17Q576 9 610 3T680 -9Q758 -21 766 17Q785 86 810 171T862 344T916 512T968 655Q972 665 973 674T970
690T956 705T926 719Q903 728 886 733T854 742T823 748T788 754Q748 760 727 755T697 727Q664 642 629 536T568 314ZM739 852Q806 852 887 889Q932 908 952 924T972 954Q972 967 944 977Q919 984 891 984Q860 984 829 970Q824 967 814 961T791 948T768 937T750
932Q708 934 668 947T592 967Q559 974 530 977T471 981Q445 981 408 974T334 955T267 931T227 908Q213 894 213 882Q213 868 231 861T282 854Q322 854 348 864Q350 864 360 869T385 880T414 892T442 897Q457 897 479 895T523 890T565 882T596 872Q619 861 655 857T739
852Z" />
<glyph unicode="&#xd2;" glyph-name="Ograve" horiz-adv-x="1019" d="M748 704Q703 725 637 739T497 761Q470 764 440 763T380 756T323 743T273 724Q168 671 97 593T-8 429T-38 259T13 109Q33 81 70 59T145 23Q193 6 252 -2T365 -15Q449 -21 513 -11T636 31Q718
82 771 152T851 299T880 451T862 589Q849 624 824 652T748 704ZM543 625Q570 620 582 590T596 518T589 428T563 338Q543 285 515 240T454 164T389 117T326 109Q294 116 278 145T260 214T267 302T297 391Q317 432 347 476T412 554T481 609T543 625ZM191 972Q227
958 277 941T385 907T506 874T629 845Q655 838 686 842T755 859Q754 858 762 862T776 873T780 888T755 905Q704 918 652 933T550 964T452 997T365 1032Q344 1042 316 1042T242 1027Q217 1020 207 1007T191 972Z" />
<glyph unicode="&#xd3;" glyph-name="Oacute" horiz-adv-x="1019" d="M748 704Q703 725 637 739T497 761Q470 764 440 763T380 756T323 743T273 724Q168 671 97 593T-8 429T-38 259T13 109Q33 81 70 59T145 23Q193 6 252 -2T365 -15Q449 -21 513 -11T636 31Q718
82 771 152T851 299T880 451T862 589Q849 624 824 652T748 704ZM543 625Q570 620 582 590T596 518T589 428T563 338Q543 285 515 240T454 164T389 117T326 109Q294 116 278 145T260 214T267 302T297 391Q317 432 347 476T412 554T481 609T543 625ZM781 972Q776
993 766 1006T730 1027Q685 1041 657 1041T607 1032Q568 1014 521 997T424 964T321 933T218 905Q195 897 193 889T196 873T210 862T218 859Q256 846 286 842T343 845Q403 857 466 873T587 907T695 941T781 972Z" />
<glyph unicode="&#xd4;" glyph-name="Ocircumflex" horiz-adv-x="1019" d="M748 704Q703 725 637 739T497 761Q470 764 440 763T380 756T323 743T273 724Q168 671 97 593T-8 429T-38 259T13 109Q33 81 70 59T145 23Q193 6 252 -2T365 -15Q449 -21 513 -11T636
31Q718 82 771 152T851 299T880 451T862 589Q849 624 824 652T748 704ZM543 625Q570 620 582 590T596 518T589 428T563 338Q543 285 515 240T454 164T389 117T326 109Q294 116 278 145T260 214T267 302T297 391Q317 432 347 476T412 554T481 609T543 625ZM799 814Q820
813 826 817T827 833Q818 852 807 876T784 927T762 981T744 1034Q740 1050 733 1057T713 1073Q698 1081 681 1087T647 1101Q630 1107 616 1107T585 1095Q550 1075 516 1052T449 1006T390 961T345 923Q325 906 348 887Q361 876 373 868T398 852Q414 843 425 843Q436
843 447 852Q482 878 523 907T612 968Q629 932 642 900T669 846Q686 824 722 820Q743 816 761 815T799 814Z" />
<glyph unicode="&#xd5;" glyph-name="Otilde" horiz-adv-x="1019" d="M748 704Q703 725 637 739T497 761Q470 764 440 763T380 756T323 743T273 724Q168 671 97 593T-8 429T-38 259T13 109Q33 81 70 59T145 23Q193 6 252 -2T365 -15Q449 -21 513 -11T636 31Q718
82 771 152T851 299T880 451T862 589Q849 624 824 652T748 704ZM543 625Q570 620 582 590T596 518T589 428T563 338Q543 285 515 240T454 164T389 117T326 109Q294 116 278 145T260 214T267 302T297 391Q317 432 347 476T412 554T481 609T543 625ZM739 852Q806
852 887 889Q932 908 952 924T972 954Q972 967 944 977Q919 984 891 984Q860 984 829 970Q824 967 814 961T791 948T768 937T750 932Q708 934 668 947T592 967Q559 974 530 977T471 981Q445 981 408 974T334 955T267 931T227 908Q213 894 213 882Q213 868 231 861T282
854Q322 854 348 864Q350 864 360 869T385 880T414 892T442 897Q457 897 479 895T523 890T565 882T596 872Q619 861 655 857T739 852Z" />
<glyph unicode="&#xd6;" glyph-name="Odieresis" horiz-adv-x="1019" d="M748 704Q703 725 637 739T497 761Q470 764 440 763T380 756T323 743T273 724Q168 671 97 593T-8 429T-38 259T13 109Q33 81 70 59T145 23Q193 6 252 -2T365 -15Q449 -21 513 -11T636 31Q718
82 771 152T851 299T880 451T862 589Q849 624 824 652T748 704ZM543 625Q570 620 582 590T596 518T589 428T563 338Q543 285 515 240T454 164T389 117T326 109Q294 116 278 145T260 214T267 302T297 391Q317 432 347 476T412 554T481 609T543 625ZM220 905Q218
888 227 875T253 851T292 836T339 832Q364 832 383 837T417 851T439 868T451 884Q458 894 458 905Q458 923 438 940T372 966Q340 972 313 969T267 957T235 934T220 905ZM605 905Q602 888 611 874T636 850T675 835T724 831Q749 831 768 836T801 850T824 867T836
883Q838 888 839 893T840 905Q840 922 820 939T757 965Q724 971 697 968T650 956T618 934T605 905Z" />
<glyph unicode="&#xd7;" glyph-name="multiply" horiz-adv-x="961" d="M605 193Q627 183 643 184T678 202Q692 216 707 229T737 261Q763 290 722 311Q699 322 668 336T601 366Q637 378 672 387T741 407Q759 411 770 415T789 424T801 435T807 451Q814 468 809 488T792
525Q784 538 760 539T706 532Q645 517 568 494T403 443Q337 469 272 490T156 525Q135 531 110 531T64 516Q46 500 27 478T0 438Q-5 419 2 411T37 395Q95 380 158 359Q108 342 70 327T0 301Q-54 278 -46 251Q-41 233 -35 220T-22 192Q-18 184 -14 180T-2 175T17
176T46 185Q111 208 191 235T359 291Q427 268 486 243T605 193Z" />
<glyph unicode="&#xd8;" glyph-name="Oslash" horiz-adv-x="1019" d="M860 812Q846 819 847 820T853 821T857 820T843 827Q779 853 744 816Q727 802 707 781T662 733Q624 743 582 749T497 761Q470 764 440 763T380 756T323 743T273 724Q168 671 97 593T-8 429T-38
259T13 109Q25 92 45 77T88 49Q73 31 62 16T44 -9Q28 -32 31 -49Q34 -67 62 -78Q72 -83 67 -81T53 -77T42 -73T55 -78Q88 -89 105 -86T136 -64Q148 -50 163 -32T196 7Q238 -2 280 -7T365 -15Q449 -21 513 -11T636 31Q718 82 771 152T851 299T880 451T862 589Q852
613 838 634T799 673Q822 698 841 718T876 752Q894 770 893 782T860 812ZM563 338Q543 285 515 240T454 164T389 117T326 109Q308 112 297 122Q363 197 440 282T592 450Q588 421 581 393T563 338ZM543 625Q552 623 559 619Q523 578 485 534T409 445T333 353T260
264Q266 329 297 391Q317 432 347 476T412 554T481 609T543 625Z" />
<glyph unicode="&#xd9;" glyph-name="Ugrave" horiz-adv-x="992" d="M0 102Q22 74 53 55T119 22Q203 -10 334 -16Q400 -19 451 -13T554 11Q625 39 679 98T775 240T851 429T915 656Q922 677 916 688T871 713Q836 725 794 737T715 756T653 757T625 730Q612 680 593
613T550 474T498 335T437 214T368 133T293 110Q261 116 251 144T244 215T264 311T302 418T349 526T396 622Q419 671 350 702Q317 716 282 727T209 745Q169 753 149 749T117 722Q77 645 39 558T-22 386T-43 227T0 102ZM191 972Q227 958 277 941T385 907T506 874T629
845Q655 838 686 842T755 859Q754 858 762 862T776 873T780 888T755 905Q704 918 652 933T550 964T452 997T365 1032Q344 1042 316 1042T242 1027Q217 1020 207 1007T191 972Z" />
<glyph unicode="&#xda;" glyph-name="Uacute" horiz-adv-x="992" d="M0 102Q22 74 53 55T119 22Q203 -10 334 -16Q400 -19 451 -13T554 11Q625 39 679 98T775 240T851 429T915 656Q922 677 916 688T871 713Q836 725 794 737T715 756T653 757T625 730Q612 680 593
613T550 474T498 335T437 214T368 133T293 110Q261 116 251 144T244 215T264 311T302 418T349 526T396 622Q419 671 350 702Q317 716 282 727T209 745Q169 753 149 749T117 722Q77 645 39 558T-22 386T-43 227T0 102ZM781 972Q776 993 766 1006T730 1027Q685 1041
657 1041T607 1032Q568 1014 521 997T424 964T321 933T218 905Q195 897 193 889T196 873T210 862T218 859Q256 846 286 842T343 845Q403 857 466 873T587 907T695 941T781 972Z" />
<glyph unicode="&#xdb;" glyph-name="Ucircumflex" horiz-adv-x="992" d="M0 102Q22 74 53 55T119 22Q203 -10 334 -16Q400 -19 451 -13T554 11Q625 39 679 98T775 240T851 429T915 656Q922 677 916 688T871 713Q836 725 794 737T715 756T653 757T625 730Q612
680 593 613T550 474T498 335T437 214T368 133T293 110Q261 116 251 144T244 215T264 311T302 418T349 526T396 622Q419 671 350 702Q317 716 282 727T209 745Q169 753 149 749T117 722Q77 645 39 558T-22 386T-43 227T0 102ZM724 831Q745 830 751 834T752 850Q743
869 732 893T709 944T687 998T669 1051Q665 1067 659 1074T638 1090Q623 1098 606 1104T572 1118Q555 1124 541 1124T510 1112Q475 1092 441 1069T374 1023T316 978T271 940Q249 923 273 904Q286 893 298 885T323 869Q339 860 350 860Q361 860 372 869Q407 895
448 924T537 985Q554 949 567 917T594 863Q611 842 647 837Q668 833 687 832T724 831Z" />
<glyph unicode="&#xdc;" glyph-name="Udieresis" horiz-adv-x="992" d="M0 102Q22 74 53 55T119 22Q203 -10 334 -16Q400 -19 451 -13T554 11Q625 39 679 98T775 240T851 429T915 656Q922 677 916 688T871 713Q836 725 794 737T715 756T653 757T625 730Q612 680
593 613T550 474T498 335T437 214T368 133T293 110Q261 116 251 144T244 215T264 311T302 418T349 526T396 622Q419 671 350 702Q317 716 282 727T209 745Q169 753 149 749T117 722Q77 645 39 558T-22 386T-43 227T0 102ZM209 905Q207 888 216 875T242 851T281
836T328 832Q353 832 372 837T406 851T428 868T440 884Q447 894 447 905Q447 923 427 940T361 966Q329 972 302 969T256 957T224 934T209 905ZM594 905Q591 888 600 874T625 850T664 835T713 831Q738 831 757 836T790 850T813 867T825 883Q827 888 828 893T829
905Q829 922 809 939T746 965Q713 971 686 968T639 956T607 934T594 905Z" />
<glyph unicode="&#xdd;" glyph-name="Yacute" horiz-adv-x="955" d="M889 644Q907 669 905 683T878 714Q857 726 827 740T766 763T711 771T675 751Q611 679 544 606T405 460Q370 532 338 595T277 706Q268 718 260 727T242 742T219 753T187 760Q149 765 112 764T37
761Q2 758 -4 751T0 722Q20 678 45 625T99 514T156 400T211 288Q193 225 182 171T158 74Q153 48 163 35T205 7Q236 -2 274 -10T348 -26Q385 -32 398 -28T420 -3Q435 51 452 107T495 227Q554 284 615 345T731 462T827 565T889 644ZM781 972Q776 993 766 1006T730
1027Q685 1041 657 1041T607 1032Q568 1014 521 997T424 964T321 933T218 905Q195 897 193 889T196 873T210 862T218 859Q256 846 286 842T343 845Q403 857 466 873T587 907T695 941T781 972Z" />
<glyph unicode="&#xde;" glyph-name="Thorn" horiz-adv-x="964" d="M352 707Q317 721 271 733T185 752Q145 759 126 754T95 727Q79 690 61 637T24 524T-13 400T-46 277T-72 168T-88 83Q-93 57 -83 43T-40 17Q-8 6 26 -1T99 -15Q137 -21 150 -16T169 6Q174 23 179
41T191 78Q275 93 360 114T521 160T662 215T772 274Q799 292 821 311T857 350T874 393T865 442Q840 493 800 528T713 592Q653 625 566 629T381 619Q384 627 388 634T396 649Q400 659 401 667T398 681T382 694T352 707ZM253 250Q275 305 295 354T337 449Q385 462
432 468T516 475T578 471T607 456Q618 438 600 411T537 355T421 298T253 250Z" />
<glyph unicode="&#xdf;" glyph-name="germandbls" horiz-adv-x="1500" d="M1313 696Q1304 705 1301 707T1296 709Q1294 709 1290 710T1274 719Q1229 751 1170 721Q1130 701 1074 670T953 600T816 518T672 429T531 341T402 259T294 189T216 138Q185 118 178 102Q176
94 178 86T191 70Q198 64 199 65T200 69T203 71Q206 71 218 64Q241 50 260 50T304 68Q356 100 435 147T607 248T799 359T991 468T1161 565T1291 636Q1320 651 1326 663T1313 696ZM207 414Q247 433 288 456T365 504T431 553T480 599Q496 617 508 634T523 667T521
701T495 736Q481 748 458 760T406 782T341 795T266 795Q200 787 143 761T46 694Q23 668 27 658T53 642Q89 634 132 634T209 650Q230 663 250 674T290 693T324 704T350 702Q361 698 350 681T310 640T241 585T153 524T54 464T-46 411Q-57 405 -60 400T-63 389T-57
378T-46 367Q-33 356 -12 343T26 321Q32 317 38 315T53 311T75 309T108 313Q134 317 174 321T258 329T345 336T422 340Q442 342 447 346T447 361Q442 370 432 382T409 403Q387 423 350 422Q321 421 282 420T207 414ZM1252 230Q1292 241 1324 253T1379 279Q1398
290 1410 306T1424 341T1413 381T1371 424Q1342 443 1314 453T1260 466T1209 469T1164 465Q1106 457 1057 437T979 395Q958 378 986 363Q1000 356 1021 351T1064 345T1108 345T1146 355Q1169 363 1195 371T1241 380Q1253 380 1261 374Q1271 367 1261 355T1218 329T1131
297T994 264Q976 260 974 253T981 234Q1007 208 1044 195T1122 185Q1154 187 1172 186T1208 176Q1216 171 1221 163T1225 145T1216 124T1192 100Q1157 77 1110 74T988 96Q962 104 929 106T867 97Q859 94 855 90T851 81T861 68T889 50Q949 15 1010 2T1129 -11Q1201
-11 1261 3T1366 56Q1406 90 1401 131T1329 207Q1312 216 1293 221T1252 230Z" />
<glyph unicode="&#xe0;" glyph-name="agrave" horiz-adv-x="1054" d="M605 186Q615 109 629 50Q636 22 650 11T700 -7Q735 -15 767 -16T838 -18Q876 -18 886 -11T895 14Q886 98 879 190T866 372T860 540T860 677Q861 700 849 714T796 737Q767 742 738 747T675
756T601 764T508 770Q449 773 418 760T367 726Q330 686 289 636T204 531T117 417T33 303T-42 194T-103 97Q-114 76 -114 64T-109 43T-89 30T-59 16Q-38 8 -15 2T26 -10Q59 -18 75 -15T106 5Q127 37 150 70T205 142Q245 149 292 155T392 166T498 176T605 186ZM288
977Q324 963 374 946T482 912T603 879T726 850Q752 843 782 847T851 864Q850 863 858 867T873 878T876 893T851 910Q801 923 749 938T646 969T549 1002T462 1037Q440 1047 412 1047T339 1032Q314 1025 304 1012T288 977ZM334 316Q399 401 461 476T574 612Q574 546
578 476T587 334Q460 328 334 316Z" />
<glyph unicode="&#xe1;" glyph-name="aacute" horiz-adv-x="1054" d="M605 186Q615 109 629 50Q636 22 650 11T700 -7Q735 -15 767 -16T838 -18Q876 -18 886 -11T895 14Q886 98 879 190T866 372T860 540T860 677Q861 700 849 714T796 737Q767 742 738 747T675
756T601 764T508 770Q449 773 418 760T367 726Q330 686 289 636T204 531T117 417T33 303T-42 194T-103 97Q-114 76 -114 64T-109 43T-89 30T-59 16Q-38 8 -15 2T26 -10Q59 -18 75 -15T106 5Q127 37 150 70T205 142Q245 149 292 155T392 166T498 176T605 186ZM911
972Q906 993 896 1006T860 1027Q815 1041 787 1041T737 1032Q697 1014 650 997T553 964T451 933T348 905Q325 897 323 889T326 873T340 862T348 859Q386 846 416 842T473 845Q533 857 596 873T717 907T825 941T911 972ZM334 316Q399 401 461 476T574 612Q574 546
578 476T587 334Q460 328 334 316Z" />
<glyph unicode="&#xe2;" glyph-name="acircumflex" horiz-adv-x="1054" d="M605 186Q615 109 629 50Q636 22 650 11T700 -7Q735 -15 767 -16T838 -18Q876 -18 886 -11T895 14Q886 98 879 190T866 372T860 540T860 677Q861 700 849 714T796 737Q767 742 738 747T675
756T601 764T508 770Q449 773 418 760T367 726Q330 686 289 636T204 531T117 417T33 303T-42 194T-103 97Q-114 76 -114 64T-109 43T-89 30T-59 16Q-38 8 -15 2T26 -10Q59 -18 75 -15T106 5Q127 37 150 70T205 142Q245 149 292 155T392 166T498 176T605 186ZM845
834Q866 833 872 837T873 853Q864 872 853 896T830 947T808 1001T790 1054Q786 1070 780 1077T759 1093Q744 1101 727 1107T693 1121Q676 1127 662 1127T631 1115Q596 1095 562 1072T495 1026T437 981T392 943Q370 926 394 907Q407 896 419 888T444 872Q460 863
471 863Q482 863 493 872Q528 898 569 927T658 988Q675 952 688 920T715 866Q732 845 768 840Q789 836 808 835T845 834ZM334 316Q399 401 461 476T574 612Q574 546 578 476T587 334Q460 328 334 316Z" />
<glyph unicode="&#xe3;" glyph-name="atilde" horiz-adv-x="1054" d="M605 186Q615 109 629 50Q636 22 650 11T700 -7Q735 -15 767 -16T838 -18Q876 -18 886 -11T895 14Q886 98 879 190T866 372T860 540T860 677Q861 700 849 714T796 737Q767 742 738 747T675
756T601 764T508 770Q449 773 418 760T367 726Q330 686 289 636T204 531T117 417T33 303T-42 194T-103 97Q-114 76 -114 64T-109 43T-89 30T-59 16Q-38 8 -15 2T26 -10Q59 -18 75 -15T106 5Q127 37 150 70T205 142Q245 149 292 155T392 166T498 176T605 186ZM739
852Q806 852 887 889Q932 908 952 924T972 954Q972 967 944 977Q919 984 891 984Q860 984 829 970Q824 967 814 961T791 948T768 937T750 932Q708 934 668 947T592 967Q559 974 530 977T471 981Q445 981 408 974T334 955T267 931T227 908Q213 894 213 882Q213 868
231 861T282 854Q322 854 348 864Q350 864 360 869T385 880T414 892T442 897Q457 897 479 895T523 890T565 882T596 872Q619 861 655 857T739 852ZM334 316Q399 401 461 476T574 612Q574 546 578 476T587 334Q460 328 334 316Z" />
<glyph unicode="&#xe4;" glyph-name="adieresis" horiz-adv-x="1054" d="M605 186Q615 109 629 50Q636 22 650 11T700 -7Q735 -15 767 -16T838 -18Q876 -18 886 -11T895 14Q886 98 879 190T866 372T860 540T860 677Q861 700 849 714T796 737Q767 742 738 747T675
756T601 764T508 770Q449 773 418 760T367 726Q330 686 289 636T204 531T117 417T33 303T-42 194T-103 97Q-114 76 -114 64T-109 43T-89 30T-59 16Q-38 8 -15 2T26 -10Q59 -18 75 -15T106 5Q127 37 150 70T205 142Q245 149 292 155T392 166T498 176T605 186ZM334
316Q399 401 461 476T574 612Q574 546 578 476T587 334Q460 328 334 316ZM304 910Q302 893 311 880T336 856T375 841T422 837Q447 837 466 842T500 856T523 873T535 889Q541 898 541 910Q541 928 521 945T455 971Q423 977 397 974T350 962T318 939T304 910ZM689
910Q686 893 694 879T719 855T758 840T807 836Q832 836 851 841T885 855T908 872T920 888Q922 893 923 898T924 910Q924 927 904 944T840 970Q807 976 780 973T733 961T702 939T689 910Z" />
<glyph unicode="&#xe5;" glyph-name="aring" horiz-adv-x="1054" d="M605 186Q615 109 629 50Q636 22 650 11T700 -7Q735 -15 767 -16T838 -18Q876 -18 886 -11T895 14Q886 98 879 190T866 372T860 540T860 677Q861 700 849 714T796 737Q767 742 738 747T675 756T601
764T508 770Q449 773 418 760T367 726Q330 686 289 636T204 531T117 417T33 303T-42 194T-103 97Q-114 76 -114 64T-109 43T-89 30T-59 16Q-38 8 -15 2T26 -10Q59 -18 75 -15T106 5Q127 37 150 70T205 142Q245 149 292 155T392 166T498 176T605 186ZM832 1036Q807
1042 771 1047T695 1054Q666 1056 632 1053T572 1042Q515 1025 477 1001T419 949T402 896T431 849Q441 840 461 833T502 822Q528 816 560 814T623 810Q669 808 703 811T770 824Q815 840 844 862T888 909T904 956T895 1000Q887 1011 874 1019T832 1036ZM334 316Q399
401 461 476T574 612Q574 546 578 476T587 334Q460 328 334 316ZM719 1011Q734 1009 741 1000T749 978T745 949T730 921Q719 904 704 890T672 866T636 851T601 849Q583 851 575 860T565 881T569 909T585 937T612 964T648 989T685 1006T719 1011Z" />
<glyph unicode="&#xe6;" glyph-name="ae" horiz-adv-x="1549" d="M1036 738Q1009 743 982 748T922 757T849 765T757 771Q700 774 665 761T603 727Q553 687 495 637T374 532T249 418T127 304T16 195T-77 98Q-95 77 -100 65T-101 44T-86 31T-62 17Q-42 9 -21 3T15
-9Q48 -17 65 -14T101 6Q133 38 166 71T244 143Q286 150 336 156T439 167T548 176T656 186Q648 154 641 133T629 97T620 72T616 50Q613 22 635 12T693 -6Q703 -10 733 -11T799 -13Q835 -13 867 -12T915 -9Q1003 2 1099 15T1289 40Q1327 45 1334 52T1333 80Q1322
98 1312 115T1283 151Q1268 168 1245 174T1184 178Q1112 175 1052 171T926 158Q926 162 927 165T928 172Q939 195 948 218T968 268Q1049 279 1135 288T1307 308Q1345 313 1353 320T1351 348Q1343 366 1333 383T1305 418Q1290 435 1268 440T1208 445Q1163 444 1123
443T1041 437Q1062 482 1079 523T1115 601Q1209 609 1292 615T1454 626Q1492 629 1502 636T1505 665Q1497 683 1489 698T1463 732Q1441 767 1368 766Q1271 764 1194 756T1045 736Q1043 737 1040 737Q1038 737 1036 738ZM431 317Q524 402 611 477T772 613Q751 547
731 477T693 335Q627 332 563 328T431 317Z" />
<glyph unicode="&#xe7;" glyph-name="ccedilla" horiz-adv-x="942" d="M213 -203Q231 -190 253 -170T297 -127T336 -81T365 -37Q365 -35 366 -33T367 -28Q429 -28 486 -17T581 11Q621 31 660 61T724 126Q734 141 739 153T742 176T725 193T684 206Q549 231 466
174Q352 92 293 106Q263 112 248 138T231 202T238 287T268 378Q288 420 321 467T391 553T464 616T526 635Q552 629 557 608T563 560Q563 546 568 528Q574 507 586 491T620 462T673 441T748 426Q771 423 784 424T805 428T817 438T825 451Q832 466 836 485T843 525T845
567Q845 588 843 606Q838 638 819 663T748 713Q722 723 690 733T621 751T547 764T473 772Q425 774 370 766T260 730Q191 694 135 645T36 538T-32 419T-67 298T-64 185T-20 91Q-10 77 5 65T38 43T75 24T114 10Q119 8 125 7T139 4Q120 -21 99 -48T58 -100T20 -149T-11
-189Q-38 -220 26 -228Q53 -230 78 -231T128 -231Q178 -229 213 -203Z" />
<glyph unicode="&#xe8;" glyph-name="egrave" horiz-adv-x="847" d="M99 710L-68 132Q-73 106 -61 87T-24 54Q4 36 26 25T73 2Q83 -3 95 -7T124 -13T161 -15T213 -9Q301 2 397 15T587 40Q625 45 632 52T631 80Q620 98 610 115T581 151Q566 168 543 174T482 178Q411
175 350 171T222 158Q234 184 244 211T266 268Q347 279 433 288T605 308Q643 313 651 320T649 348Q641 366 631 383T603 418Q588 435 566 440T506 445Q461 444 421 443T339 437Q360 482 377 523T414 601Q507 609 590 615T752 626Q790 629 800 636T803 665Q795 683
787 698T761 732Q739 767 667 766Q590 764 513 759T363 745T222 728T99 710ZM191 972Q227 958 277 941T385 907T506 874T629 845Q655 838 686 842T755 859Q754 858 762 862T776 873T780 888T755 905Q704 918 652 933T550 964T452 997T365 1032Q344 1042 316 1042T242
1027Q217 1020 207 1007T191 972Z" />
<glyph unicode="&#xe9;" glyph-name="eacute" horiz-adv-x="847" d="M99 710L-68 132Q-73 106 -61 87T-24 54Q4 36 26 25T73 2Q83 -3 95 -7T124 -13T161 -15T213 -9Q301 2 397 15T587 40Q625 45 632 52T631 80Q620 98 610 115T581 151Q566 168 543 174T482 178Q411
175 350 171T222 158Q234 184 244 211T266 268Q347 279 433 288T605 308Q643 313 651 320T649 348Q641 366 631 383T603 418Q588 435 566 440T506 445Q461 444 421 443T339 437Q360 482 377 523T414 601Q507 609 590 615T752 626Q790 629 800 636T803 665Q795 683
787 698T761 732Q739 767 667 766Q590 764 513 759T363 745T222 728T99 710ZM781 972Q776 993 766 1006T730 1027Q685 1041 657 1041T607 1032Q568 1014 521 997T424 964T321 933T218 905Q195 897 193 889T196 873T210 862T218 859Q256 846 286 842T343 845Q403
857 466 873T587 907T695 941T781 972Z" />
<glyph unicode="&#xea;" glyph-name="ecircumflex" horiz-adv-x="847" d="M99 710L-68 132Q-73 106 -61 87T-24 54Q4 36 26 25T73 2Q83 -3 95 -7T124 -13T161 -15T213 -9Q301 2 397 15T587 40Q625 45 632 52T631 80Q620 98 610 115T581 151Q566 168 543 174T482
178Q411 175 350 171T222 158Q234 184 244 211T266 268Q347 279 433 288T605 308Q643 313 651 320T649 348Q641 366 631 383T603 418Q588 435 566 440T506 445Q461 444 421 443T339 437Q360 482 377 523T414 601Q507 609 590 615T752 626Q790 629 800 636T803 665Q795
683 787 698T761 732Q739 767 667 766Q590 764 513 759T363 745T222 728T99 710ZM724 831Q745 830 751 834T752 850Q743 869 732 893T709 944T687 998T669 1051Q665 1067 659 1074T638 1090Q623 1098 606 1104T572 1118Q555 1124 541 1124T510 1112Q475 1092 441
1069T374 1023T316 978T271 940Q249 923 273 904Q286 893 298 885T323 869Q339 860 350 860Q361 860 372 869Q407 895 448 924T537 985Q554 949 567 917T594 863Q611 842 647 837Q668 833 687 832T724 831Z" />
<glyph unicode="&#xeb;" glyph-name="edieresis" horiz-adv-x="847" d="M99 710L-68 132Q-73 106 -61 87T-24 54Q4 36 26 25T73 2Q83 -3 95 -7T124 -13T161 -15T213 -9Q301 2 397 15T587 40Q625 45 632 52T631 80Q620 98 610 115T581 151Q566 168 543 174T482
178Q411 175 350 171T222 158Q234 184 244 211T266 268Q347 279 433 288T605 308Q643 313 651 320T649 348Q641 366 631 383T603 418Q588 435 566 440T506 445Q461 444 421 443T339 437Q360 482 377 523T414 601Q507 609 590 615T752 626Q790 629 800 636T803 665Q795
683 787 698T761 732Q739 767 667 766Q590 764 513 759T363 745T222 728T99 710ZM145 905Q143 888 152 875T178 851T217 836T264 832Q289 832 308 837T342 851T365 868T376 884Q383 892 383 905Q383 923 363 940T297 966Q265 972 238 969T192 957T160 934T145 905ZM530
905Q528 888 536 874T561 850T600 835T649 831Q674 831 693 836T726 850T749 867T761 883Q763 888 764 893T766 905Q766 922 746 939T682 965Q649 971 622 968T575 956T544 934T530 905Z" />
<glyph unicode="&#xec;" glyph-name="igrave" horiz-adv-x="458" d="M352 707Q317 721 271 733T185 752Q145 759 126 754T95 727Q79 690 61 637T24 524T-13 400T-46 277T-72 168T-88 83Q-93 57 -83 43T-40 17Q-8 6 26 -1T99 -15Q137 -21 150 -16T169 6Q182 50
199 104T235 218T276 338T318 455T359 562T396 649Q400 659 401 667T398 681T382 694T352 707ZM-64 993Q-28 979 22 962T130 928T251 895T374 866Q400 859 430 863T499 880Q498 879 506 883T521 894T524 909T499 926Q449 939 397 954T294 985T197 1018T110 1053Q88
1063 60 1063T-13 1048Q-38 1041 -48 1028T-64 993Z" />
<glyph unicode="&#xed;" glyph-name="iacute" horiz-adv-x="458" d="M352 707Q317 721 271 733T185 752Q145 759 126 754T95 727Q79 690 61 637T24 524T-13 400T-46 277T-72 168T-88 83Q-93 57 -83 43T-40 17Q-8 6 26 -1T99 -15Q137 -21 150 -16T169 6Q182 50
199 104T235 218T276 338T318 455T359 562T396 649Q400 659 401 667T398 681T382 694T352 707ZM620 974Q615 995 605 1008T570 1029Q525 1043 497 1043T447 1034Q407 1016 360 999T263 966T160 935T57 907Q35 899 33 891T35 875T49 864T57 861Q95 848 125 844T183
847Q243 859 305 875T426 909T534 943T620 974Z" />
<glyph unicode="&#xee;" glyph-name="icircumflex" horiz-adv-x="458" d="M352 707Q317 721 271 733T185 752Q145 759 126 754T95 727Q79 690 61 637T24 524T-13 400T-46 277T-72 168T-88 83Q-93 57 -83 43T-40 17Q-8 6 26 -1T99 -15Q137 -21 150 -16T169 6Q182
50 199 104T235 218T276 338T318 455T359 562T396 649Q400 659 401 667T398 681T382 694T352 707ZM510 826Q532 825 538 829T539 845Q530 864 519 888T496 939T473 993T455 1046Q452 1062 445 1069T425 1085Q410 1093 393 1099T359 1113Q342 1119 328 1119T297
1107Q262 1087 228 1064T161 1018T102 973T57 935Q37 918 59 899Q73 888 84 880T110 864Q126 855 136 855Q149 855 158 864Q193 890 234 919T323 980Q340 944 353 912T381 858Q398 836 433 832Q455 828 473 827T510 826Z" />
<glyph unicode="&#xef;" glyph-name="idieresis" horiz-adv-x="458" d="M352 707Q317 721 271 733T185 752Q145 759 126 754T95 727Q79 690 61 637T24 524T-13 400T-46 277T-72 168T-88 83Q-93 57 -83 43T-40 17Q-8 6 26 -1T99 -15Q137 -21 150 -16T169 6Q182
50 199 104T235 218T276 338T318 455T359 562T396 649Q400 659 401 667T398 681T382 694T352 707ZM-42 905Q-44 888 -35 875T-9 851T30 836T77 832Q102 832 121 837T155 851T178 868T189 884Q196 892 196 905Q196 923 176 940T110 966Q78 972 51 969T5 957T-27
934T-42 905ZM343 905Q341 888 349 874T374 850T413 835T462 831Q487 831 506 836T539 850T562 867T574 883Q576 888 577 893T579 905Q579 922 559 939T495 965Q462 971 435 968T388 956T357 934T343 905Z" />
<glyph unicode="&#xf0;" glyph-name="eth" horiz-adv-x="898" d="M251 635Q186 627 229 581Q238 571 242 569T251 565T263 561T284 548Q312 527 336 521T389 520Q396 521 404 522T420 525Q424 507 425 489T427 452Q358 467 282 464Q220 462 174 455T92 435T29
406T-22 369Q-69 329 -94 287T-125 205T-123 131T-92 73Q-77 58 -54 45T5 21T93 6T220 1Q293 4 350 14T454 41T538 84T609 142Q641 175 672 219T725 316T757 430T755 555Q781 557 807 557T860 560Q895 561 903 568T898 597Q890 606 889 608T886 611T881 616T867
630Q824 667 766 667Q752 667 740 667Q729 667 715 666Q710 678 704 690T689 715Q681 725 675 731T661 742T639 749T605 754Q584 755 557 756T503 757Q476 757 451 757T409 755Q366 750 349 741T345 709Q366 679 378 649Q342 645 310 642T251 635ZM394 252Q365
191 331 155T251 114Q197 109 174 141T165 230Q176 278 206 311T284 346Q306 347 326 341T361 322T385 291T394 252Z" />
<glyph unicode="&#xf1;" glyph-name="ntilde" horiz-adv-x="1030" d="M568 314Q552 359 537 407T507 500T482 582T464 643Q456 673 440 688T383 714Q335 728 290 737T198 754Q160 760 137 754T101 725Q83 683 64 627T26 509T-12 383T-45 262T-71 160T-86 88Q-93
62 -84 48T-42 22Q-10 8 26 2T97 -11Q135 -18 148 -14T167 8Q176 44 190 91T221 191T256 301T293 415Q310 368 329 321T369 230T410 146T451 77Q478 33 541 17Q576 9 610 3T680 -9Q758 -21 766 17Q785 86 810 171T862 344T916 512T968 655Q972 665 973 674T970
690T956 705T926 719Q903 728 886 733T854 742T823 748T788 754Q748 760 727 755T697 727Q664 642 629 536T568 314ZM739 852Q806 852 887 889Q932 908 952 924T972 954Q972 967 944 977Q919 984 891 984Q860 984 829 970Q824 967 814 961T791 948T768 937T750
932Q708 934 668 947T592 967Q559 974 530 977T471 981Q445 981 408 974T334 955T267 931T227 908Q213 894 213 882Q213 868 231 861T282 854Q322 854 348 864Q350 864 360 869T385 880T414 892T442 897Q457 897 479 895T523 890T565 882T596 872Q619 861 655 857T739
852Z" />
<glyph unicode="&#xf2;" glyph-name="ograve" horiz-adv-x="1019" d="M748 704Q703 725 637 739T497 761Q470 764 440 763T380 756T323 743T273 724Q168 671 97 593T-8 429T-38 259T13 109Q33 81 70 59T145 23Q193 6 252 -2T365 -15Q449 -21 513 -11T636 31Q718
82 771 152T851 299T880 451T862 589Q849 624 824 652T748 704ZM543 625Q570 620 582 590T596 518T589 428T563 338Q543 285 515 240T454 164T389 117T326 109Q294 116 278 145T260 214T267 302T297 391Q317 432 347 476T412 554T481 609T543 625ZM191 972Q227
958 277 941T385 907T506 874T629 845Q655 838 686 842T755 859Q754 858 762 862T776 873T780 888T755 905Q704 918 652 933T550 964T452 997T365 1032Q344 1042 316 1042T242 1027Q217 1020 207 1007T191 972Z" />
<glyph unicode="&#xf3;" glyph-name="oacute" horiz-adv-x="1019" d="M748 704Q703 725 637 739T497 761Q470 764 440 763T380 756T323 743T273 724Q168 671 97 593T-8 429T-38 259T13 109Q33 81 70 59T145 23Q193 6 252 -2T365 -15Q449 -21 513 -11T636 31Q718
82 771 152T851 299T880 451T862 589Q849 624 824 652T748 704ZM543 625Q570 620 582 590T596 518T589 428T563 338Q543 285 515 240T454 164T389 117T326 109Q294 116 278 145T260 214T267 302T297 391Q317 432 347 476T412 554T481 609T543 625ZM781 972Q776
993 766 1006T730 1027Q685 1041 657 1041T607 1032Q568 1014 521 997T424 964T321 933T218 905Q195 897 193 889T196 873T210 862T218 859Q256 846 286 842T343 845Q403 857 466 873T587 907T695 941T781 972Z" />
<glyph unicode="&#xf4;" glyph-name="ocircumflex" horiz-adv-x="1019" d="M748 704Q703 725 637 739T497 761Q470 764 440 763T380 756T323 743T273 724Q168 671 97 593T-8 429T-38 259T13 109Q33 81 70 59T145 23Q193 6 252 -2T365 -15Q449 -21 513 -11T636
31Q718 82 771 152T851 299T880 451T862 589Q849 624 824 652T748 704ZM543 625Q570 620 582 590T596 518T589 428T563 338Q543 285 515 240T454 164T389 117T326 109Q294 116 278 145T260 214T267 302T297 391Q317 432 347 476T412 554T481 609T543 625ZM799 814Q820
813 826 817T827 833Q818 852 807 876T784 927T762 981T744 1034Q740 1050 733 1057T713 1073Q698 1081 681 1087T647 1101Q630 1107 616 1107T585 1095Q550 1075 516 1052T449 1006T390 961T345 923Q325 906 348 887Q361 876 373 868T398 852Q414 843 425 843Q436
843 447 852Q482 878 523 907T612 968Q629 932 642 900T669 846Q686 824 722 820Q743 816 761 815T799 814Z" />
<glyph unicode="&#xf5;" glyph-name="otilde" horiz-adv-x="1019" d="M748 704Q703 725 637 739T497 761Q470 764 440 763T380 756T323 743T273 724Q168 671 97 593T-8 429T-38 259T13 109Q33 81 70 59T145 23Q193 6 252 -2T365 -15Q449 -21 513 -11T636 31Q718
82 771 152T851 299T880 451T862 589Q849 624 824 652T748 704ZM543 625Q570 620 582 590T596 518T589 428T563 338Q543 285 515 240T454 164T389 117T326 109Q294 116 278 145T260 214T267 302T297 391Q317 432 347 476T412 554T481 609T543 625ZM739 852Q806
852 887 889Q932 908 952 924T972 954Q972 967 944 977Q919 984 891 984Q860 984 829 970Q824 967 814 961T791 948T768 937T750 932Q708 934 668 947T592 967Q559 974 530 977T471 981Q445 981 408 974T334 955T267 931T227 908Q213 894 213 882Q213 868 231 861T282
854Q322 854 348 864Q350 864 360 869T385 880T414 892T442 897Q457 897 479 895T523 890T565 882T596 872Q619 861 655 857T739 852Z" />
<glyph unicode="&#xf6;" glyph-name="odieresis" horiz-adv-x="1019" d="M748 704Q703 725 637 739T497 761Q470 764 440 763T380 756T323 743T273 724Q168 671 97 593T-8 429T-38 259T13 109Q33 81 70 59T145 23Q193 6 252 -2T365 -15Q449 -21 513 -11T636 31Q718
82 771 152T851 299T880 451T862 589Q849 624 824 652T748 704ZM543 625Q570 620 582 590T596 518T589 428T563 338Q543 285 515 240T454 164T389 117T326 109Q294 116 278 145T260 214T267 302T297 391Q317 432 347 476T412 554T481 609T543 625ZM220 905Q218
888 227 875T253 851T292 836T339 832Q364 832 383 837T417 851T439 868T451 884Q458 894 458 905Q458 923 438 940T372 966Q340 972 313 969T267 957T235 934T220 905ZM605 905Q602 888 611 874T636 850T675 835T724 831Q749 831 768 836T801 850T824 867T836
883Q838 888 839 893T840 905Q840 922 820 939T757 965Q724 971 697 968T650 956T618 934T605 905Z" />
<glyph unicode="&#xf7;" glyph-name="divide" horiz-adv-x="1074" d="M893 320Q925 320 933 326T931 350Q919 365 910 379T882 411Q850 441 794 441Q720 441 665 440T565 438T486 435T419 431T353 425T281 417T191 408T75 396Q50 394 32 386T24 360Q36 343 58
321T101 284Q113 276 123 272T143 266T165 264Q177 264 194 266Q265 274 314 280T400 292T464 301T519 308T576 313T649 316T750 318T893 320ZM321 164Q319 141 330 123T364 91T416 72T480 66Q513 66 539 73T583 91T613 114T629 135Q636 148 636 164Q636 187 609
210T524 245Q480 253 444 249T382 233T340 203T321 164ZM381 588Q378 565 390 547T423 515T475 496T539 490Q572 490 598 497T643 515T673 538T689 559Q695 572 695 588Q695 611 668 634T583 669Q539 677 503 673T441 657T399 627T381 588Z" />
<glyph unicode="&#xf8;" glyph-name="oslash" horiz-adv-x="1019" d="M860 812Q846 819 847 820T853 821T857 820T843 827Q779 853 744 816Q727 802 707 781T662 733Q624 743 582 749T497 761Q470 764 440 763T380 756T323 743T273 724Q168 671 97 593T-8 429T-38
259T13 109Q25 92 45 77T88 49Q73 31 62 16T44 -9Q28 -32 31 -49Q34 -67 62 -78Q72 -83 67 -81T53 -77T42 -73T55 -78Q88 -89 105 -86T136 -64Q148 -50 163 -32T196 7Q238 -2 280 -7T365 -15Q449 -21 513 -11T636 31Q718 82 771 152T851 299T880 451T862 589Q852
613 838 634T799 673Q822 698 841 718T876 752Q894 770 893 782T860 812ZM563 338Q543 285 515 240T454 164T389 117T326 109Q308 112 297 122Q363 197 440 282T592 450Q588 421 581 393T563 338ZM543 625Q552 623 559 619Q523 578 485 534T409 445T333 353T260
264Q266 329 297 391Q317 432 347 476T412 554T481 609T543 625Z" />
<glyph unicode="&#xf9;" glyph-name="ugrave" horiz-adv-x="992" d="M0 102Q22 74 53 55T119 22Q203 -10 334 -16Q400 -19 451 -13T554 11Q625 39 679 98T775 240T851 429T915 656Q922 677 916 688T871 713Q836 725 794 737T715 756T653 757T625 730Q612 680 593
613T550 474T498 335T437 214T368 133T293 110Q261 116 251 144T244 215T264 311T302 418T349 526T396 622Q419 671 350 702Q317 716 282 727T209 745Q169 753 149 749T117 722Q77 645 39 558T-22 386T-43 227T0 102ZM191 972Q227 958 277 941T385 907T506 874T629
845Q655 838 686 842T755 859Q754 858 762 862T776 873T780 888T755 905Q704 918 652 933T550 964T452 997T365 1032Q344 1042 316 1042T242 1027Q217 1020 207 1007T191 972Z" />
<glyph unicode="&#xfa;" glyph-name="uacute" horiz-adv-x="992" d="M0 102Q22 74 53 55T119 22Q203 -10 334 -16Q400 -19 451 -13T554 11Q625 39 679 98T775 240T851 429T915 656Q922 677 916 688T871 713Q836 725 794 737T715 756T653 757T625 730Q612 680 593
613T550 474T498 335T437 214T368 133T293 110Q261 116 251 144T244 215T264 311T302 418T349 526T396 622Q419 671 350 702Q317 716 282 727T209 745Q169 753 149 749T117 722Q77 645 39 558T-22 386T-43 227T0 102ZM781 972Q776 993 766 1006T730 1027Q685 1041
657 1041T607 1032Q568 1014 521 997T424 964T321 933T218 905Q195 897 193 889T196 873T210 862T218 859Q256 846 286 842T343 845Q403 857 466 873T587 907T695 941T781 972Z" />
<glyph unicode="&#xfb;" glyph-name="ucircumflex" horiz-adv-x="992" d="M0 102Q22 74 53 55T119 22Q203 -10 334 -16Q400 -19 451 -13T554 11Q625 39 679 98T775 240T851 429T915 656Q922 677 916 688T871 713Q836 725 794 737T715 756T653 757T625 730Q612
680 593 613T550 474T498 335T437 214T368 133T293 110Q261 116 251 144T244 215T264 311T302 418T349 526T396 622Q419 671 350 702Q317 716 282 727T209 745Q169 753 149 749T117 722Q77 645 39 558T-22 386T-43 227T0 102ZM724 831Q745 830 751 834T752 850Q743
869 732 893T709 944T687 998T669 1051Q665 1067 659 1074T638 1090Q623 1098 606 1104T572 1118Q555 1124 541 1124T510 1112Q475 1092 441 1069T374 1023T316 978T271 940Q249 923 273 904Q286 893 298 885T323 869Q339 860 350 860Q361 860 372 869Q407 895
448 924T537 985Q554 949 567 917T594 863Q611 842 647 837Q668 833 687 832T724 831Z" />
<glyph unicode="&#xfc;" glyph-name="udieresis" horiz-adv-x="992" d="M0 102Q22 74 53 55T119 22Q203 -10 334 -16Q400 -19 451 -13T554 11Q625 39 679 98T775 240T851 429T915 656Q922 677 916 688T871 713Q836 725 794 737T715 756T653 757T625 730Q612 680
593 613T550 474T498 335T437 214T368 133T293 110Q261 116 251 144T244 215T264 311T302 418T349 526T396 622Q419 671 350 702Q317 716 282 727T209 745Q169 753 149 749T117 722Q77 645 39 558T-22 386T-43 227T0 102ZM209 905Q207 888 216 875T242 851T281
836T328 832Q353 832 372 837T406 851T428 868T440 884Q447 894 447 905Q447 923 427 940T361 966Q329 972 302 969T256 957T224 934T209 905ZM594 905Q591 888 600 874T625 850T664 835T713 831Q738 831 757 836T790 850T813 867T825 883Q827 888 828 893T829
905Q829 922 809 939T746 965Q713 971 686 968T639 956T607 934T594 905Z" />
<glyph unicode="&#xfd;" glyph-name="yacute" horiz-adv-x="955" d="M889 644Q907 669 905 683T878 714Q857 726 827 740T766 763T711 771T675 751Q611 679 544 606T405 460Q370 532 338 595T277 706Q268 718 260 727T242 742T219 753T187 760Q149 765 112 764T37
761Q2 758 -4 751T0 722Q20 678 45 625T99 514T156 400T211 288Q193 225 182 171T158 74Q153 48 163 35T205 7Q236 -2 274 -10T348 -26Q385 -32 398 -28T420 -3Q435 51 452 107T495 227Q554 284 615 345T731 462T827 565T889 644ZM781 972Q776 993 766 1006T730
1027Q685 1041 657 1041T607 1032Q568 1014 521 997T424 964T321 933T218 905Q195 897 193 889T196 873T210 862T218 859Q256 846 286 842T343 845Q403 857 466 873T587 907T695 941T781 972Z" />
<glyph unicode="&#xfe;" glyph-name="thorn" horiz-adv-x="964" d="M352 707Q317 721 271 733T185 752Q145 759 126 754T95 727Q79 690 61 637T24 524T-13 400T-46 277T-72 168T-88 83Q-93 57 -83 43T-40 17Q-8 6 26 -1T99 -15Q137 -21 150 -16T169 6Q174 23 179
41T191 78Q275 93 360 114T521 160T662 215T772 274Q799 292 821 311T857 350T874 393T865 442Q840 493 800 528T713 592Q653 625 566 629T381 619Q384 627 388 634T396 649Q400 659 401 667T398 681T382 694T352 707ZM253 250Q275 305 295 354T337 449Q385 462
432 468T516 475T578 471T607 456Q618 438 600 411T537 355T421 298T253 250Z" />
<glyph unicode="&#xff;" glyph-name="ydieresis" horiz-adv-x="955" d="M889 644Q907 669 905 683T878 714Q857 726 827 740T766 763T711 771T675 751Q611 679 544 606T405 460Q370 532 338 595T277 706Q268 718 260 727T242 742T219 753T187 760Q149 765 112
764T37 761Q2 758 -4 751T0 722Q20 678 45 625T99 514T156 400T211 288Q193 225 182 171T158 74Q153 48 163 35T205 7Q236 -2 274 -10T348 -26Q385 -32 398 -28T420 -3Q435 51 452 107T495 227Q554 284 615 345T731 462T827 565T889 644ZM145 905Q143 888 152 875T178
851T217 836T264 832Q289 832 308 837T342 851T365 868T376 884Q383 892 383 905Q383 923 363 940T297 966Q265 972 238 969T192 957T160 934T145 905ZM530 905Q528 888 536 874T561 850T600 835T649 831Q674 831 693 836T726 850T749 867T761 883Q763 888 764
893T766 905Q766 922 746 939T682 965Q649 971 622 968T575 956T544 934T530 905Z" />
</font>
</defs>
</svg>
